<?xml version="1.0" standalone="no"?><!DOCTYPE svg PUBLIC "-//W3C//DTD SVG 1.1//EN" "http://www.w3.org/Graphics/SVG/1.1/DTD/svg11.dtd"><svg t="1517895176779" class="icon" style="" viewBox="0 0 1024 1024" version="1.1" xmlns="http://www.w3.org/2000/svg" p-id="2062" xmlns:xlink="http://www.w3.org/1999/xlink" width="32" height="32"><defs><style type="text/css"></style></defs><path d="M7.090208 47.512299v970.932382l967.885547-7.181826-967.885547-963.750556z" fill="#F7B657" p-id="2063"></path><path d="M1.580706 1024V34.259712L988.216888 1016.680723zM12.599711 60.764886V1012.900815l949.146366-7.044374z" fill="#541018" p-id="2064"></path><path d="M988.216888 1008.891822L9.40397 34.282621l12.874596-12.714237 978.572378 974.63211-12.634056 12.691328z" fill="#F29B5F" p-id="2065"></path><path d="M988.239796 1016.726541l-3.928813-3.91736L1.534889 34.271166l20.766586-20.503137 986.384187 982.421011zM17.29596 34.305529l970.932382 966.74012 4.810792-4.8337L22.267112 29.36874z" fill="#541018" p-id="2066"></path><path d="M1001.984916 995.123793L23.171999 20.514592l12.874596-12.714236L1014.618973 982.432466l-12.634057 12.691327z" fill="#8BD340" p-id="2067"></path><path d="M1002.007825 1002.958512l-3.928814-3.905905-982.776093-978.549469L36.069503 0 1022.453691 982.421011zM31.04108 20.5375l970.932382 966.740121 4.810792-4.833701L36.035141 15.600711z" fill="#541018" p-id="2068"></path><path d="M799.393299 984.482779L48.039212 236.427522l12.863142-12.737145 751.125001 748.112529-12.634056 12.679873z" fill="#F29B5F" p-id="2069"></path><path d="M799.416208 991.343885l-3.436281-3.43628-754.836183-751.502992 19.75861-19.575342 757.986107 754.962181z m-744.527344-754.904909L799.381845 977.621674l5.784404-5.807314L60.8909 230.528574z" fill="#541018" p-id="2070"></path><path d="M627.762565 968.882068L54.407785 398.115952l12.840233-12.760053L640.385167 956.202195l-12.622602 12.679873z" fill="#F29B5F" p-id="2071"></path><path d="M627.808382 975.754628l-3.43628-3.43628-576.836878-574.202396 19.712794-19.59825 580.032618 577.673038zM61.291799 398.127406l566.516583 563.90501 5.727133-5.807313L67.248018 392.20555z" fill="#541018" p-id="2072"></path><path d="M460.28973 973.899037L53.85798 569.38015l12.817324-12.771508 406.248482 404.610522-12.634056 12.679873z" fill="#F29B5F" p-id="2073"></path><path d="M460.301184 980.760143L46.98542 569.391604l19.689884-19.632613 3.43628 3.43628 409.673308 408.012438zM60.73054 569.38015L460.278275 967.037931l5.784405-5.807313L66.675304 563.458294z" fill="#541018" p-id="2074"></path><path d="M291.362202 969.328784L59.459116 738.628396l12.794416-12.80587 231.742727 230.814931-12.634057 12.691327z" fill="#F29B5F" p-id="2075"></path><path d="M291.385111 976.18989l-3.43628-3.43628L52.586556 738.639851l19.689885-19.666977 238.592378 237.664583zM66.331676 738.616942l225.019072 223.850737 5.784405-5.807314L72.276441 732.683632z" fill="#541018" p-id="2076"></path><path d="M105.070007 69.080683c51.051667-2.886475 83.03198 20.022058 87.361693 69.722122s45.404714 58.519849 89.343281 61.429233 84.395038 35.714404 81.325295 94.852784 44.419647 85.907001 84.337766 86.697346 94.28007 27.123704 92.424479 93.18046 27.856777 87.556416 84.246133 90.488708 95.070415 48.107921 85.563373 91.920491 24.569402 90.213806 82.138547 83.616148 99.560487 38.566516 88.759114 96.07839 44.602915 95.963847 83.409971 87.56787" fill="#FEBEC7" p-id="2077"></path></svg>