<?xml version="1.0" standalone="no"?><!DOCTYPE svg PUBLIC "-//W3C//DTD SVG 1.1//EN" "http://www.w3.org/Graphics/SVG/1.1/DTD/svg11.dtd"><svg t="1517895230920" class="icon" style="" viewBox="0 0 1024 1024" version="1.1" xmlns="http://www.w3.org/2000/svg" p-id="3332" xmlns:xlink="http://www.w3.org/1999/xlink" width="32" height="32"><defs><style type="text/css"></style></defs><path d="M216.50098 311.351504L519.431767 1011.787696l304.786966-700.436192H216.50098z" fill="#FFD4A4" p-id="3333"></path><path d="M519.420448 1024L209.110216 306.484692h622.499281zM223.903062 316.206999l295.551341 683.368393 297.362248-683.368393z" fill="#541018" p-id="3334"></path><path d="M132.38435 247.59626l759.177487 0 0 75.899639-759.177487 0 0-75.899639Z" fill="#FFFFFF" p-id="3335"></path><path d="M860.934872 328.362712H163.022632A35.53905 35.53905 0 0 1 127.528855 292.868935v-14.645711a35.527732 35.527732 0 0 1 35.493777-35.482459h697.91224a35.527732 35.527732 0 0 1 35.493778 35.482459v14.645711a35.53905 35.53905 0 0 1-35.493778 35.493777zM163.022632 252.463072a25.794107 25.794107 0 0 0-25.77147 25.760152v14.645711a25.805425 25.805425 0 0 0 25.77147 25.77147h697.91224a25.805425 25.805425 0 0 0 25.771471-25.77147v-14.645711a25.794107 25.794107 0 0 0-25.771471-25.760152z" fill="#541018" p-id="3336"></path><path d="M169.383443 193.348277l693.384973 0 0 78.932909-693.384973 0 0-78.932909Z" fill="#FFFFFF" p-id="3337"></path><path d="M832.141451 277.147998H200.010408a35.53905 35.53905 0 0 1-35.493777-35.493777v-17.678979a35.527732 35.527732 0 0 1 35.493777-35.48246h632.131043a35.516414 35.516414 0 0 1 35.482459 35.48246v17.678979a35.527732 35.527732 0 0 1-35.482459 35.493777zM200.010408 198.203771a25.805425 25.805425 0 0 0-25.77147 25.771471v17.678979a25.805425 25.805425 0 0 0 25.77147 25.77147h632.131043a25.805425 25.805425 0 0 0 25.77147-25.77147v-17.678979a25.805425 25.805425 0 0 0-25.77147-25.771471z" fill="#541018" p-id="3338"></path><path d="M522.680081 118.863408m-113.951323 0a113.951323 113.951323 0 1 0 227.902646 0 113.951323 113.951323 0 1 0-227.902646 0Z" fill="#FF315E" p-id="3339"></path><path d="M522.691399 237.681544a118.840772 118.840772 0 1 1 118.840772-118.840772 118.965272 118.965272 0 0 1-118.840772 118.840772z m0-227.902646a109.095829 109.095829 0 1 0 109.039238 109.08451 109.220328 109.220328 0 0 0-109.039238-109.08451z" fill="#541018" p-id="3340"></path><path d="M456.016067 73.477552a19.829432 16.705617 0 1 0 39.658863 0 19.829432 16.705617 0 1 0-39.658863 0Z" fill="#FFFFFF" p-id="3341"></path><path d="M604.465168 139.360612c-7.23231 21.708248-23.156973 42.805314-48.000353 43.484404-2.342861 0.056591-2.354179 3.701041 0 3.644451 26.541106-0.724363 43.744722-22.840065 51.508986-46.166811 0.746999-2.263634-2.772951-3.180405-3.508633-0.962044z" fill="#FFFFFF" p-id="3342"></path><path d="M561.80699 926.561885l6.756947-15.517209-71.779826 60.518248 3.112496 7.209674 61.910383-52.210713zM468.66978 906.551363l35.991776-30.355329h79.068727l3.259633-7.515264h-73.409643l80.426907-67.818467h22.50052l3.270951-7.515264h-16.852754l26.620333-22.455247 6.790902-15.517209-45.034994 37.972456h-99.599885l76.114685-64.196653h79.883635l3.270951-7.503946h-74.247187l70.353737-59.27325h29.710193l3.270951-7.515264h-24.073745l37.995092-32.098327 6.790901-15.528527-56.421071 47.536309h-92.039348l80.438225-67.773195h76.816411l3.270951-7.515264h-71.179963l76.092048-64.174017h22.998519l3.259633-7.515264h-17.328116l27.412604-23.1117 6.790902-15.51721-45.849902 38.62891h-105.258969l81.88695-69.040829h82.384951l3.270951-7.515264h-76.714548l81.875633-69.04083h24.899971l3.270951-7.503946h-19.240887l30.46851-25.669606 2.399452-5.523267h-7.515264l-36.976458 31.192873h-99.599885l36.987776-31.192873h-11.657714l-36.999094 31.192873h-107.103831l36.987776-31.192873h-11.646396l-36.987775 31.192873h-107.04724l36.987775-31.192873h-11.657714l-36.987775 31.192873H229.992237l3.248314 7.503946h188.854964l-81.875633 69.04083h-77.110683l3.248314 7.515264h64.954971l-47.604218 40.134226 3.112496 7.198356 56.149435-47.332582h107.092513l-81.875633 69.040829h-71.972235l3.248315 7.515264h59.816522l-43.835268 36.953821 3.112496 7.209674 52.380485-44.140858h107.092513l-76.058094 64.15138h-74.699914l3.248315 7.515264h62.5442l-45.827265 38.651546 3.112496 7.198356 54.327211-45.849902h99.599885l-80.438226 67.829786h-64.038199l3.248315 7.515264h51.837213l-37.983775 32.019099 3.112497 7.198355 46.517673-39.1835h105.25897l-70.342419 59.318523h-72.741871l3.248315 7.503945h60.540885l-44.367222 37.349957 3.112496 7.209674 52.901121-44.604903h92.02803l-76.103366 64.196653h-60.359794l3.248314 7.515264h48.192763l-35.312687 29.766784 3.112497 7.198355 43.846585-36.965139h99.599885l-80.438225 67.818467h-49.664125l3.248315 7.515264h37.474457l-27.457878 23.156973z m237.45518-391.246458l-76.114685 64.174017h-105.258969l76.114685-64.174017z m-107.964012-7.515264h-99.599885l81.875633-69.040829h99.599885z m73.104052-145.596923h99.599885l-81.875632 69.04083h-99.599885z m-118.761544 0h107.103831l-81.875633 69.04083h-107.103831z m-200.62586 69.04083l81.875633-69.04083h107.103831l-81.886951 69.04083z m27.967195 76.556093l81.875633-69.040829h107.103831l-81.875633 69.040829z m33.728143 71.689281l76.114685-64.174017h99.599885l-76.114685 64.174017z m21.866702 75.34505l80.438226-67.829786h105.258969l-80.426907 67.829786z m37.610275 66.777195l70.39901-59.227977h92.02803l-70.353737 59.318523z" fill="#541018" p-id="3343"></path></svg>