<?xml version="1.0" standalone="no"?><!DOCTYPE svg PUBLIC "-//W3C//DTD SVG 1.1//EN" "http://www.w3.org/Graphics/SVG/1.1/DTD/svg11.dtd"><svg t="1517895169631" class="icon" style="" viewBox="0 0 1092 1024" version="1.1" xmlns="http://www.w3.org/2000/svg" p-id="1804" xmlns:xlink="http://www.w3.org/1999/xlink" width="34.125" height="32"><defs><style type="text/css"></style></defs><path d="M306.633918 7.219069l-16.921596 12.42946a38.688367 38.688367 0 1 1-61.441217 46.625691l-214.502526 162.763835 1044.074612 242.855329z" fill="#FCE875" p-id="1805"></path><path d="M1092.002901 486.051525L0.012174 232.032812 229.780657 57.606467l3.506058 5.429519a32.711027 32.711027 0 1 0 51.957819-39.418795l-4.370397-4.869524L306.341746 0.036521l3.493884 2.093896zM27.549331 226.091993l996.13415 231.716293-716.757392-443.370148-8.765143 6.427772a44.665708 44.665708 0 0 1-71.107222 53.808238z" fill="#541018" p-id="1806"></path><path d="M1019.020912 652.333591a88.138382 88.138382 0 0 1 65.738572-85.216668v-78.155858L7.92515 238.010153v378.142876a71.983737 71.983737 0 0 1 0 143.723997v48.695238l1076.858682 208.172145V737.58678a88.16273 88.16273 0 0 1-65.76292-85.253189z" fill="#FFC232" p-id="1807"></path><path d="M1090.773346 1024L1.94781 813.527005v-59.310801l5.636473-0.316519a65.994222 65.994222 0 0 0 0-131.769316l-5.636473-0.316519V230.474565L1090.773346 484.188932v87.517518l-4.479962 1.21738a82.148868 82.148868 0 0 0 0 158.916912l4.479962 1.217381z m-1076.858682-220.345955l1064.879653 205.871295V742.09109a94.127896 94.127896 0 0 1 0-179.502824v-68.903763L13.914664 245.557915v365.141247a77.973251 77.973251 0 0 1 0 154.607383z" fill="#541018" p-id="1808"></path><path d="M196.850502 473.329894a65.689877 54.891708 90 1 0 109.783416 0 65.689877 54.891708 90 1 0-109.783416 0Z" fill="#F9E769" p-id="1809"></path><path d="M251.74221 545.009285c-33.563193 0-60.869048-32.151031-60.869048-71.679391s27.318029-71.667217 60.869048-71.667218 60.869048 32.151031 60.869048 71.667218-27.305855 71.679391-60.869048 71.679391z m0-131.379754c-26.964988 0-48.902193 26.782381-48.902193 59.651667s21.912857 59.712536 48.902193 59.712537 48.902193-26.782381 48.902193-59.712537-21.937205-59.651667-48.902193-59.651667z" fill="#541018" p-id="1810"></path><path d="M468.606455 205.846948a39.930096 32.163205 0 1 0 79.860192 0 39.930096 32.163205 0 1 0-79.860192 0Z" fill="#F2B42C" p-id="1811"></path><path d="M508.536551 243.999667c-25.321524 0-45.91961-17.116376-45.91961-38.152719s20.598086-38.152719 45.91961-38.15272 45.907436 17.116376 45.907436 38.15272-20.61026 38.152719-45.907436 38.152719z m0-64.338584c-18.711145 0-33.940581 11.747726-33.940581 26.185865s15.229436 26.173691 33.940581 26.17369 33.940581-11.735553 33.940581-26.17369-15.229436-26.185865-33.940581-26.185865z" fill="#541018" p-id="1812"></path><path d="M108.675599 199.419176a41.390953 31.85886 0 1 0 82.781906 0 41.390953 31.85886 0 1 0-82.781906 0Z" fill="#F2B42C" p-id="1813"></path><path d="M150.054378 237.255377c-26.124996 0-47.380467-16.970291-47.380467-37.836201s21.255472-37.848374 47.380467-37.848374 47.380467 16.982464 47.380467 37.848374-21.255472 37.8362-47.380467 37.836201z m0-63.705546c-19.478095 0-35.401439 11.601641-35.401439 25.869345s15.886822 25.869346 35.401439 25.869346 35.413612-11.613814 35.413612-25.869346-15.886822-25.869346-35.413612-25.869345z" fill="#541018" p-id="1814"></path><path d="M973.028259 924.564323m-41.390953 0a41.390953 41.390953 0 1 0 82.781906 0 41.390953 41.390953 0 1 0-82.781906 0Z" fill="#FFE600" p-id="1815"></path><path d="M973.016085 971.94479a47.380467 47.380467 0 1 1 47.380467-47.380467 47.477858 47.477858 0 0 1-47.380467 47.380467z m0-82.781906a35.413612 35.413612 0 1 0 35.413612 35.401439 35.450134 35.450134 0 0 0-35.413612-35.401439z" fill="#541018" p-id="1816"></path><path d="M806.953147 481.437651a57.594294 52.189122 0 1 0 115.188588 0 57.594294 52.189122 0 1 0-115.188588 0Z" fill="#FFE600" p-id="1817"></path><path d="M864.547441 539.616287c-35.060572 0-63.583808-26.100648-63.583808-58.178636s28.523236-58.178636 63.583808-58.178637 63.571634 26.088474 63.571634 58.178637-28.511062 58.178636-63.571634 58.178636z m0-104.390418c-28.462367 0-51.604779 20.695476-51.604779 46.260477s23.130238 46.199608 51.604779 46.199608 51.604779-20.695476 51.604779-46.199608-23.191107-46.260477-51.604779-46.260477z" fill="#541018" p-id="1818"></path><path d="M344.433597 690.194139a121.543316 106.179968 0 1 0 243.086631 0 121.543316 106.179968 0 1 0-243.086631 0Z" fill="#F9E769" p-id="1819"></path><path d="M465.976913 802.363621c-70.328098 0-127.53283-50.314355-127.53283-112.169482s57.216905-112.169482 127.53283-112.169482 127.508482 50.326529 127.508482 112.169482-57.216905 112.169482-127.508482 112.169482z m0-212.359936c-63.71772 0-115.565975 44.945705-115.565976 100.190454s51.848255 100.202627 115.565976 100.202627 115.553801-44.945705 115.553801-100.202627-51.836082-100.190454-115.553801-100.190454z" fill="#541018" p-id="1820"></path></svg>