<?xml version="1.0" standalone="no"?><!DOCTYPE svg PUBLIC "-//W3C//DTD SVG 1.1//EN" "http://www.w3.org/Graphics/SVG/1.1/DTD/svg11.dtd"><svg t="1517895224074" class="icon" style="" viewBox="0 0 1103 1024" version="1.1" xmlns="http://www.w3.org/2000/svg" p-id="3191" xmlns:xlink="http://www.w3.org/1999/xlink" width="34.46875" height="32"><defs><style type="text/css"></style></defs><path d="M109.332714 345.445783l891.896422 0 0 196.896581-891.896422 0 0-196.896581Z" fill="#BAD348" p-id="3192"></path><path d="M972.396061 548.116494h-834.180172a34.632255 34.632255 0 0 1-34.64478-34.557103v-139.280533a34.632255 34.632255 0 0 1 34.594679-34.59468h834.180172a34.632255 34.632255 0 0 1 34.607205 34.59468v139.280533a34.632255 34.632255 0 0 1-34.557104 34.557103z m-834.180172-196.896581a23.09652 23.09652 0 0 0-23.07147 23.058945v139.280533a23.09652 23.09652 0 0 0 23.07147 23.058944h834.180172a23.083995 23.083995 0 0 0 23.07147-23.058944v-139.280533a23.083995 23.083995 0 0 0-23.07147-23.058945z" fill="#541018" p-id="3193"></path><path d="M111.590296 580.058414l891.889237 3.580292-0.974465 242.749484-891.889236-3.580292 0.974464-242.749484Z" fill="#B05F0B" p-id="3194"></path><path d="M973.773836 832.063409h-0.150302l-834.180173-3.369286a34.594679 34.594679 0 0 1-34.456901-34.732457l0.738988-185.085291a34.632255 34.632255 0 0 1 34.594679-34.456902h0.150303l834.180172 3.369286a34.61973 34.61973 0 0 1 34.456902 34.719932l-0.738988 185.085291a34.594679 34.594679 0 0 1-34.59468 34.456902z m-0.100201-11.52321h0.100201a23.09652 23.09652 0 0 0 23.058945-22.983793l0.751514-185.085291a23.083995 23.083995 0 0 0-22.971268-23.146621l-834.180173-3.381812h-0.100202a23.09652 23.09652 0 0 0-23.09652 22.971268L116.484619 793.999242a23.046419 23.046419 0 0 0 22.971267 23.159146z" fill="#541018" p-id="3195"></path><path d="M17.109461 778.768565H1090.947343v176.079652a63.377653 63.377653 0 0 1-63.377653 63.377653H80.487114a63.377653 63.377653 0 0 1-63.377653-63.377653V778.768565z" fill="#FFC232" p-id="3196"></path><path d="M1018.877182 1024H89.192147A77.931967 77.931967 0 0 1 11.347856 946.155709V773.00696H1096.708947V946.155709a77.931967 77.931967 0 0 1-77.831765 77.844291zM22.883591 784.530169v161.575439a66.383707 66.383707 0 0 0 66.308556 66.308556h929.685035a66.383707 66.383707 0 0 0 66.308556-66.308556v-161.575439z" fill="#541018" p-id="3197"></path><path d="M1016.221834 581.871983H90.845477v-33.179328h925.376357v33.179328z" fill="#F5BCB8" p-id="3198"></path><path d="M1021.995964 587.633588h-936.887041v-44.702538h936.887041z m-925.376357-11.535735h913.840622v-21.643593H96.619607z" fill="#541018" p-id="3199"></path><path d="M386.24045 704.105682l457.095664-160.360492-641.730047 2.054137 184.634383 158.306355z" fill="#FCFF7D" p-id="3200"></path><path d="M385.025503 710.656376L186.124885 540.087823l691.392576-2.216965z m-167.838053-159.13302l170.343099 146.044157 421.649269-147.935466z" fill="#541018" p-id="3201"></path><path d="M335.914085 5.761605h432.120359a330.15248 330.15248 0 0 1 330.114905 330.15248v45.316274H5.761605v-45.316274A330.15248 330.15248 0 0 1 335.914085 5.761605z" fill="#FFC232" p-id="3202"></path><path d="M1098.161874 387.05459H0v-5.77413A381.242884 381.242884 0 0 1 381.230359 0.02505h341.462761a381.242884 381.242884 0 0 1 381.230359 381.205309v5.824231zM11.585836 375.468754h1080.764332C1089.256437 174.263495 924.624843 11.535735 722.69312 11.535735H381.230359C179.311161 11.535735 14.679567 174.27602 11.585836 375.468754z" fill="#541018" p-id="3203"></path><path d="M223.149459 105.399792a19.338952 18.336934 0 1 0 38.677903 0 19.338952 18.336934 0 1 0-38.677903 0Z" fill="#F9FFBF" p-id="3204"></path><path d="M501.67295 260.574839a19.338952 18.336934 0 1 0 38.677903 0 19.338952 18.336934 0 1 0-38.677903 0Z" fill="#F9FFBF" p-id="3205"></path><path d="M439.773274 859.318305a19.338952 18.336934 0 1 0 38.677903 0 19.338952 18.336934 0 1 0-38.677903 0Z" fill="#F9FFBF" p-id="3206"></path><path d="M605.469513 157.003731a19.338952 18.336934 0 1 0 38.677903 0 19.338952 18.336934 0 1 0-38.677903 0Z" fill="#F9FFBF" p-id="3207"></path><path d="M384.486918 188.492153a19.338952 18.336934 0 1 0 38.677904 0 19.338952 18.336934 0 1 0-38.677904 0Z" fill="#F9FFBF" p-id="3208"></path><path d="M815.34223 206.829087a19.338952 18.336934 0 1 0 38.677903 0 19.338952 18.336934 0 1 0-38.677903 0Z" fill="#F9FFBF" p-id="3209"></path><path d="M931.225638 157.003731a19.338952 18.336934 0 1 0 38.677903 0 19.338952 18.336934 0 1 0-38.677903 0Z" fill="#F9FFBF" p-id="3210"></path><path d="M52.180099 297.236181a19.338952 18.336934 0 1 0 38.677904 0 19.338952 18.336934 0 1 0-38.677904 0Z" fill="#F9FFBF" p-id="3211"></path><path d="M693.860045 278.911773a19.338952 18.336934 0 1 0 38.677904 0 19.338952 18.336934 0 1 0-38.677904 0Z" fill="#F9FFBF" p-id="3212"></path><path d="M453.839105 25.714293a19.338952 18.336934 0 1 0 38.677903 0 19.338952 18.336934 0 1 0-38.677903 0Z" fill="#F9FFBF" p-id="3213"></path><path d="M724.409076 44.051226a19.338952 18.336934 0 1 0 38.677903 0 19.338952 18.336934 0 1 0-38.677903 0Z" fill="#F9FFBF" p-id="3214"></path><path d="M242.48841 333.910048a19.338952 18.336934 0 1 0 38.677904 0 19.338952 18.336934 0 1 0-38.677904 0Z" fill="#F9FFBF" p-id="3215"></path><path d="M981.890184 315.573115a19.338952 18.336934 0 1 0 38.677904 0 19.338952 18.336934 0 1 0-38.677904 0Z" fill="#F9FFBF" p-id="3216"></path><path d="M796.003278 896.944089a19.338952 18.336934 0 1 0 38.677904 0 19.338952 18.336934 0 1 0-38.677904 0Z" fill="#F9FFBF" p-id="3217"></path><path d="M170.73138 840.981371a19.338952 18.336934 0 1 0 38.677904 0 19.338952 18.336934 0 1 0-38.677904 0Z" fill="#F9FFBF" p-id="3218"></path><path d="M307.143636 961.524164a19.338952 18.336934 0 1 0 38.677904 0 19.338952 18.336934 0 1 0-38.677904 0Z" fill="#F9FFBF" p-id="3219"></path></svg>