<?xml version="1.0" standalone="no"?><!DOCTYPE svg PUBLIC "-//W3C//DTD SVG 1.1//EN" "http://www.w3.org/Graphics/SVG/1.1/DTD/svg11.dtd"><svg t="1517895205157" class="icon" style="" viewBox="0 0 1923 1024" version="1.1" xmlns="http://www.w3.org/2000/svg" p-id="2936" xmlns:xlink="http://www.w3.org/1999/xlink" width="60.09375" height="32"><defs><style type="text/css"></style></defs><path d="M812.734779 94.551866a20.604163 12.784592 0 1 0 41.208325 0 20.604163 12.784592 0 1 0-41.208325 0Z" fill="#BE725B" p-id="2937"></path><path d="M812.734779 94.551866a20.604163 12.784592 0 1 0 41.208325 0 20.604163 12.784592 0 1 0-41.208325 0Z" fill="#BE725B" p-id="2938"></path><path d="M608.384237 5.465582C277.107723 5.465582 8.563647 155.471462 8.563647 340.516594s268.544076 335.592159 599.82059 335.037483c334.36105-0.554675 600.551137-150.168224 599.820589-335.037483S939.66075 5.465582 608.384237 5.465582z m0.432917 266.67712c-98.123435 0-177.672008-23.147552-177.672008-51.693044s79.548573-51.679515 177.672008-51.679515 177.672008 23.147552 177.672008 51.679515-79.562101 51.693044-177.672008 51.693044z" fill="#8F3522" p-id="2939"></path><path d="M606.598452 681.087303c-108.526981 0-214.875847-16.383218-307.655457-47.417984-90.804425-30.371861-166.213225-73.812417-218.09567-125.600162-50.881323-50.786623-77.762788-108.716383-77.762789-167.498448 0-46.457449 16.234403-91.440273 48.243233-133.717363C81.997262 166.348512 125.81662 130.024036 181.568264 98.88104 295.669057 35.147482 447.244262 0.054115 608.384237 0.054115s312.539307 35.039252 426.585985 98.772811c55.69753 31.115938 99.503359 67.453943 130.213437 107.972306 32.035888 42.250033 48.364991 87.232857 48.554392 133.690305 0.229987 58.660308-26.205031 116.346552-76.436978 166.87613-51.408941 51.760687-126.709512 95.201242-217.581581 125.627218-93.347815 31.237696-200.968375 47.86443-311.267612 48.040303zM608.384237 10.998808c-327.732002 0-594.355007 147.841293-594.355007 329.571901 0 55.819288 25.785643 111.056842 74.542965 159.746521 104.995999 104.820126 303.380398 169.82538 518.039786 169.82538h1.758727c217.256892-0.365274 416.926516-65.668158 521.110794-170.461227 48.148532-48.405577 73.4742-103.426673 73.257742-159.110674C1202.022224 158.799515 935.385691 10.944693 608.384237 10.944693z m0.432917 266.609476c-88.788653 0-183.13759-20.02243-183.13759-57.158626s94.335408-57.145097 183.13759-57.145097 183.151118 20.02243 183.151118 57.145097-94.375994 57.158626-183.151118 57.158626z m0-103.35903c-101.465016 0-172.192897 24.351604-172.192897 46.200404s70.727881 46.213933 172.192897 46.213933 172.192897-24.351604 172.192897-46.213933-70.727881-46.200404-172.192897-46.200404z" fill="#541018" p-id="2940"></path><path d="M6.236716 402.04498s55.467542-79.156241 87.09757-59.823774 50.056075 103.900176 121.135701 87.936348 100.112149-121.284516 171.178246-63.354756 107.958777 102.709654 176.42737 79.007425 115.873048-63.205941 184.341642-28.964879 144.837928 68.238606 192.242383 35.431583 89.546259-50.921909 142.199838-22.119373 101.01857 17.384339 116.46831 0c10.552362-11.864643-60.87901 135.949593-290.054659 205.852224-205.730467 62.745966-399.014558 46.430391-474.585702 29.018995-84.080677-19.41364-338.243778-57.550957-426.450699-262.983793z" fill="#FED493" p-id="2941"></path><path d="M600.497023 686.268783c-92.549623 0-152.129881-11.999929-169.108361-15.896186-6.696691-1.555797-14.353918-3.192766-23.242253-5.086779-49.136125-10.525304-131.363374-28.126102-210.05964-66.588108C102.84494 552.14556 36.622106 486.707389 1.204052 404.209567l-1.176995-2.813963 1.758727-2.489275a298.807708 298.807708 0 0 1 32.360576-37.880273c25.704471-25.014509 46.565678-32.901723 62.069533-23.418126 11.188209 6.845506 20.482405 20.550048 30.317746 35.039253 19.778914 29.181339 42.209447 62.231877 86.772882 52.23419 26.164445-5.871442 46.498035-24.689821 66.168719-42.88588 30.710078-28.410205 62.475393-57.808002 109.582218-19.373054 10.173559 8.293074 19.521869 16.234403 28.572548 23.864572 54.114675 45.848659 86.854054 73.514786 142.619227 54.209376 15.625612-5.411468 30.155403-11.648184 44.21169-17.695499 47.986188-20.63122 89.43803-38.462005 144.364425-10.985279 66.980439 33.483455 142.172781 66.642223 186.695629 35.823915 28.843122-19.954787 50.056075-30.425976 71.079626-35.012195 25.907401-5.654984 51.043667-1.52874 76.869896 12.595191 52.667108 28.816065 97.406415 14.976236 109.75809 1.163465 2.813963-3.165709 5.627926-2.705734 7.048437-2.096944a5.682041 5.682041 0 0 1 3.503925 5.614398c-0.324688 7.21078-23.512826 44.861066-67.007496 85.081798-41.654771 38.529649-114.993685 91.683789-227.917484 126.127779-91.277928 27.842-188.048497 42.926466-287.592442 44.82048-7.034908 0.067643-14.015701 0.135287-20.766506 0.135287zM12.50049 402.707885c80.969083 183.989896 294.92498 229.797968 398.013437 251.863227 8.915393 1.907542 16.626734 3.55804 23.404597 5.127365 74.204748 17.127295 268.287031 33.13171 471.75821-28.924294 109.176357-33.307583 180.458913-84.337721 221.04492-121.284515 28.410205-25.880343 46.308633-48.594978 56.225147-63.300642-23.851043 10.092387-62.759495 11.729356-104.711896-11.228795-48.811437-26.692064-88.409851-11.445254-136.463683 21.821743-49.433756 34.214003-124.815498 1.447568-197.802667-35.039252-50.380763-25.20391-87.787532-9.104794-135.151401 11.255852-14.23216 6.114958-28.951351 12.446375-44.942238 17.979601-61.663672 21.348239-100.112149-11.17468-153.279817-56.19809-9.010093-7.630169-18.317818-15.517383-28.410205-23.729285-39.801344-32.468805-64.301763-9.781228-95.295943 18.940136-19.765385 18.29076-42.168861 39.016681-71.214913 45.537499a84.080677 84.080677 0 0 1-18.466633 2.151058c-39.801344 0-61.704258-32.306461-79.819146-58.917352-9.14538-13.528669-17.790199-26.245618-26.962637-31.846487-21.253539-13.055165-62.597151 34.75515-77.925132 55.792231z" fill="#541018" p-id="2942"></path><path d="M126.763627 245.23418a20.604163 11.715827 0 1 0 41.208325 0 20.604163 11.715827 0 1 0-41.208325 0Z" fill="#FF3957" p-id="2943"></path><path d="M321.738802 180.364213a20.604163 11.580541 0 1 0 41.208325 0 20.604163 11.580541 0 1 0-41.208325 0Z" fill="#FED493" p-id="2944"></path><path d="M486.517988 372.863641a20.604163 11.580541 0 1 0 41.208325 0 20.604163 11.580541 0 1 0-41.208325 0Z" fill="#FFBAD0" p-id="2945"></path><path d="M732.320372 65.262298a25.474483 11.567012 0 1 0 50.948966 0 25.474483 11.567012 0 1 0-50.948966 0Z" fill="#FED493" p-id="2946"></path><path d="M396.45764 49.555514a36.906209 15.720313 0 1 0 73.812417 0 36.906209 15.720313 0 1 0-73.812417 0Z" fill="#41FAB6" p-id="2947"></path><path d="M873.451445 412.286182a28.870179 13.596312 0 1 0 57.740358 0 28.870179 13.596312 0 1 0-57.740358 0Z" fill="#47D1CC" p-id="2948"></path><path d="M1011.051535 283.858529a20.604163 11.715827 0 1 0 41.208325 0 20.604163 11.715827 0 1 0-41.208325 0Z" fill="#FF3957" p-id="2949"></path><path d="M1112.665367 233.518352a20.604163 11.580541 0 1 0 41.208325 0 20.604163 11.580541 0 1 0-41.208325 0Z" fill="#FED493" p-id="2950"></path><path d="M881.717461 163.263975a20.604163 11.580541 0 1 0 41.208326 0 20.604163 11.580541 0 1 0-41.208326 0Z" fill="#FFBAD0" p-id="2951"></path></svg>