<?xml version="1.0" standalone="no"?><!DOCTYPE svg PUBLIC "-//W3C//DTD SVG 1.1//EN" "http://www.w3.org/Graphics/SVG/1.1/DTD/svg11.dtd"><svg t="1517895151816" class="icon" style="" viewBox="0 0 1030 1024" version="1.1" xmlns="http://www.w3.org/2000/svg" p-id="1439" xmlns:xlink="http://www.w3.org/1999/xlink" width="32.1875" height="32"><defs><style type="text/css"></style></defs><path d="M909.706946 192.347953H25.024283l155.6109-92.318854 571.635349 1.598743 157.436414 90.720111z" fill="#FCDEBE" p-id="1440"></path><path d="M935.36619 199.207804H0l178.764314-106.049894h1.893546l573.460863 1.598742z m-885.317624-13.73104h833.999136l-133.625361-76.989071-567.904951-1.576065z" fill="#541018" p-id="1441"></path><path d="M6.973237 206.090332h921.442393v678.410914a121.59511 121.59511 0 0 1-121.583771 121.583771h-678.27485A121.59511 121.59511 0 0 1 6.973237 884.501246V206.090332z" fill="#FCDEBE" p-id="1442"></path><path d="M806.865875 1013.035577H128.568347A128.693072 128.693072 0 0 1 0.022677 884.501246V199.139773h935.354852v685.361473a128.693072 128.693072 0 0 1-128.511654 128.534331zM13.923797 213.040892v671.460354a114.769275 114.769275 0 0 0 114.64455 114.633212h678.297528a114.769275 114.769275 0 0 0 114.64455-114.633212V213.040892z" fill="#541018" p-id="1443"></path><path d="M2.891342 348.117594h924.877988v506.82393H2.891342z" fill="#34A398" p-id="1444"></path><path d="M25.2057 12.007574H908.334976v89.223417H25.2057z" fill="#8D361F" p-id="1445"></path><path d="M915.194827 108.045487h-896.882993V5.147723h896.882993zM32.065551 94.325785h869.409574V18.878763H32.065551z" fill="#541018" p-id="1446"></path><path d="M110.993522 0h110.959507v111.923287H110.993522zM308.330458 0h110.959507v111.923287h-110.959507zM510.803778 0h110.959507v111.923287H510.803778zM720.148288 0h110.959506v111.923287h-110.959506z" fill="#FED39A" p-id="1447"></path><path d="M51.511244 382.076691h289.417679v439.27991H51.511244zM381.543777 382.076691h289.417678v24.026486H381.543777zM381.543777 457.002137h289.417678v24.026486H381.543777zM381.543777 531.938922h289.417678v24.026486H381.543777zM381.543777 606.864369h289.417678v24.026486H381.543777z" fill="#FFFFFF" p-id="1448"></path><path d="M121.867237 450.142286m-44.03911 0a44.039109 44.039109 0 1 0 88.078219 0 44.039109 44.039109 0 1 0-88.078219 0Z" fill="#34A398" p-id="1449"></path></svg>