<?xml version="1.0" standalone="no"?><!DOCTYPE svg PUBLIC "-//W3C//DTD SVG 1.1//EN" "http://www.w3.org/Graphics/SVG/1.1/DTD/svg11.dtd"><svg t="1517895158614" class="icon" style="" viewBox="0 0 1024 1024" version="1.1" xmlns="http://www.w3.org/2000/svg" p-id="1562" xmlns:xlink="http://www.w3.org/1999/xlink" width="32" height="32"><defs><style type="text/css"></style></defs><path d="M378.524905 35.877796s60.160451-116.278047 133.356815 91.710806c-7.109454-10.118625-146.266389-71.427615-133.356815-91.710806z" fill="#63C666" p-id="1563"></path><path d="M523.286708 149.560145l-14.149995-19.996057c-2.067369-2.733522-20.260221-12.461644-37.844347-21.822233-50.535698-26.990657-92.583696-50.60461-96.672493-66.224735a9.188309 9.188309 0 0 1 0.930317-7.29322c1.435673-2.722036 19.617039-36.064112 48.870317-34.042684 31.458472 2.193709 62.021084 44.689636 90.734548 126.339245zM421.905207 6.900167c-24.24565 0-40.198851 30.229536-40.348161 30.551127l-0.14931 0.264164a2.297077 2.297077 0 0 0-0.17228 2.021427c3.663838 14.000685 59.724007 44.000513 93.284304 61.929201 13.897317 7.431045 23.855146 12.783234 30.459243 16.734207-33.043455-89.413729-62.158908-110.12188-81.040883-111.408243q-1.022199-0.091883-2.032913-0.091883z" fill="#541018" p-id="1564"></path><path d="M645.514185 35.86631s-60.194907-116.289532-133.437213 91.699321c8.728893-11.680637 147.862858-72.553183 133.437213-91.699321z" fill="#63C666" p-id="1565"></path><path d="M501.395563 147.584659l7.454015-21.156081c28.713465-81.615152 59.264591-124.11108 90.734549-126.339245 28.920202-2.009943 47.02117 30.528156 48.835861 33.939316a8.705923 8.705923 0 0 1 1.320819 7.040541c-3.250364 14.827633-42.495928 36.902545-93.410643 64.226278-19.180594 10.336847-39.050312 20.926373-41.51967 24.280106zM602.099426 6.877196c-0.677638 0-1.366761 0-2.055884 0.080398-18.859004 1.320819-47.962971 22.005999-80.926029 111.224477 7.304705-4.467815 18.514442-10.520613 33.996743-18.824547 34.685865-18.617811 87.116652-46.734035 89.953542-59.66658a1.849147 1.849147 0 0 0-0.275649-1.699837l-0.310106-0.493872c-0.218222-0.459415-16.217365-30.620039-40.382617-30.620039z" fill="#541018" p-id="1566"></path><path d="M511.996574 127.623058S563.990916 61.134159 643.722465 36.635831c73.288247-22.568783 110.052968-10.899631 128.303246 1.998457 15.390417 10.87666 33.112368 33.939315 24.762492 64.031027 0 0-21.006771-33.020484-53.981314-9.004543-20.191308-19.123168-123.709091-26.623124-230.810315 33.962286z" fill="#3C873C" p-id="1567"></path><path d="M498.696497 139.085473l10.612497-13.56424c0.516842-0.677638 53.579325-67.625952 133.402757-92.204678 73.609838-22.649181 112.005483-11.15231 131.289446 2.480843 18.14691 12.817691 34.52507 37.33899 26.083311 67.763777l-2.055884 7.408074-4.123253-6.569641c-0.080398-0.114854-8.545127-13.081855-22.4769-15.700523-8.522156-1.596469-17.492243 0.964772-26.646096 7.637782l-2.297077 1.665381-2.055884-1.952516c-8.591069-8.131653-37.33899-15.344476-80.156508-11.944801-34.214965 2.710551-87.403787 12.978486-146.576495 46.446901z m218.050051-111.810231c-18.755635 0-42.369589 3.445616-72.013369 12.633924-55.267677 17.021342-97.419043 54.934601-117.357673 75.677208 53.372588-26.898774 100.772776-35.696579 132.346101-38.200394 36.948486-2.928773 69.635895 1.860633 83.223106 11.979258 10.038227-6.673009 20.053484-9.188309 29.862004-7.270249 10.153081 1.929545 17.69898 8.108682 22.17828 12.852146 3.514528-23.82069-10.038227-43.01277-24.888831-53.510412-10.532099-7.476986-27.243335-14.161481-53.349618-14.161481z" fill="#541018" p-id="1568"></path><path d="M511.996574 127.634544s-51.994342-66.500384-131.725891-90.998713c-73.276762-22.557298-110.052968-10.899631-128.303246 1.998457C236.588506 49.510949 218.85507 72.573604 227.204946 102.665315c0 0 21.018256-33.008999 53.981313-9.004543 20.191308-19.123168 123.720577-26.623124 230.810315 33.973772z" fill="#3C873C" p-id="1569"></path><path d="M525.296651 139.085473l-14.931002-8.476214c-59.21865-33.4799-112.418957-43.736349-146.645407-46.446901-42.817519-3.445616-71.565439 3.801663-80.156508 11.933316l-2.067369 1.964001-2.297078-1.676866c-9.188309-6.661524-18.135424-9.188309-26.65758-7.637782C238.621419 91.363695 230.15669 104.330696 230.064807 104.457035l-4.123254 6.431816-2.055884-7.350647c-8.430273-30.390331 7.947887-54.923115 26.083311-67.763777 19.295448-13.633153 57.725549-25.130024 131.289446-2.480843 79.834917 24.578726 132.885915 91.52704 133.414243 92.204678z m-182.100793-62.595353c6.787863 0 13.851375 0.275649 21.087168 0.849919 31.56184 2.503814 78.973513 11.30162 132.334616 38.188908-19.93863-20.731122-62.089996-58.655866-117.346187-75.665722-70.910772-21.822233-107.296475-11.221222-125.328531 1.527556C239.09232 51.876938 225.539565 71.069018 229.054093 94.901194c4.4793-4.75495 12.025199-10.934087 22.17828-12.863632 9.762578-1.849147 19.777835 0.59724 29.862003 7.281734 10.888146-8.143139 34.180508-12.829176 62.101482-12.829176z" fill="#541018" p-id="1570"></path><path d="M671.976514 218.621771c-1.378246-2.297077-2.779463-4.594154-4.203651-6.891232-30.447758-52.005827-85.830289-85.841774-148.999911-84.360159-67.373274 1.539042-125.810917 39.050312-154.616265 94.317989a159.945484 159.945484 0 0 0-7.419559 14.299305c-34.685865 76.423758-32.021256 174.210333 4.341475 337.670345 53.280705 239.60812 152.3881 444.851966 152.594837 444.484434 78.801233-162.598608 118.01234-281.035907 167.881886-499.373093 29.460015-128.992369 26.726493-238.344728-9.578812-300.147589z" fill="#F9803D" p-id="1571"></path><path d="M516.923805 1024l-3.870575-0.44793c-3.020656-0.356047-3.950973-2.297077-5.47853-5.409617-0.769521-1.584983-1.895089-3.928002-3.330761-7.006085-2.5153-5.35219-6.650038-14.310791-12.094112-26.611639-9.188309-20.811519-23.636924-54.509641-40.061026-96.925172-28.713465-74.10371-68.705578-188.521124-96.339417-312.747058-18.881974-84.934429-28.081768-149.310017-28.943172-202.613692-0.884375-55.049455 7.052027-99.072939 24.969229-138.54821 2.205194-4.846833 4.766435-9.785549 7.603325-14.678323 30.4937-58.334275 91.515555-95.592867 159.290817-97.154879a171.051852 171.051852 0 0 1 89.58601 22.901859 177.943084 177.943084 0 0 1 64.180337 64.157366c1.458644 2.297077 2.894317 4.594154 4.261078 6.891231 18.376617 31.41253 28.587125 74.298961 30.183594 127.487783 1.584983 52.235535-5.145453 111.672407-19.996057 176.668206-50.75392 222.253702-90.010969 339.197901-168.272389 500.533117z m5.811605-891.265945h-3.813148c-63.835775 1.527556-121.262704 36.546498-149.895772 91.458128l-0.114853 0.218222a153.973083 153.973083 0 0 0-7.166881 13.782463c-33.640695 74.10371-32.319876 167.824459 4.697523 334.22473 46.492842 209.034023 127.051339 389.595775 147.265618 432.999048 74.517184-155.213505 113.027683-271.307785 162.506724-487.864737 29.356646-128.487012 26.083311-236.438154-8.958601-296.16216-1.320819-2.23965-2.68758-4.467815-4.088797-6.650039l-0.126339-0.195251c-30.06874-51.420073-82.246848-81.787433-140.305474-81.787433z" fill="#541018" p-id="1572"></path><path d="M569.572813 285.214038h125.902801v8.889689H569.572813zM332.227314 353.643967h107.664007v16.424102H332.227314zM591.234251 459.872301h99.796518v15.734979H591.234251zM568.194567 640.973866h80.064625v9.578812h-80.064625zM405.814181 731.800298h57.300591v9.578811h-57.300591zM359.160544 556.062408h133.310874v9.578812H359.160544z" fill="#541018" p-id="1573"></path></svg>