<?xml version="1.0" standalone="no"?><!DOCTYPE svg PUBLIC "-//W3C//DTD SVG 1.1//EN" "http://www.w3.org/Graphics/SVG/1.1/DTD/svg11.dtd"><svg t="1517895139502" class="icon" style="" viewBox="0 0 1024 1024" version="1.1" xmlns="http://www.w3.org/2000/svg" p-id="1195" xmlns:xlink="http://www.w3.org/1999/xlink" width="32" height="32"><defs><style type="text/css"></style></defs><path d="M704.922684 1018.113621H359.316361L192.922684 621.737279h673.139624L704.922684 1018.113621z" fill="#FFF164" p-id="1196"></path><path d="M708.889092 1024H355.407437l-171.302824-408.137603h690.706785z m-345.663808-11.772758h337.742489l156.356941-384.592087H201.786743z" fill="#541018" p-id="1197"></path><path d="M560.591432 853.547941l-18.142004-7.426955 63.359051-186.915525 40.767773 16.7049-85.98482 177.63758z" fill="#FFF164" p-id="1198"></path><path d="M564.511852 863.79162l-32.018682-13.129384 68.486639-202.056856 56.483945 23.189114z m-12.083172-22.211883l4.253828 1.747519 79.017739-163.255042-25.051601-10.266672z" fill="#541018" p-id="1199"></path><path d="M528.630233 845.465667l-18.532896 6.403736-75.833116-182.201823 41.641532-14.382539 52.72448 190.180626z" fill="#FFF164" p-id="1200"></path><path d="M505.613572 861.860152l-81.983922-196.963758L481.332259 644.972381l57.04729 205.59788z m-60.71478-187.398392l69.693807 167.439888 4.345803-1.506085-48.390173-174.786366z" fill="#541018" p-id="1201"></path><path d="M1002.989599 447.169354a193.951588 193.951588 0 0 0-159.024206-190.766965 126.465173 126.465173 0 0 0-117.037769-87.295459 193.928594 193.928594 0 0 0-383.051511 1.253154 126.591638 126.591638 0 0 0-138.778282 86.306732 193.9056 193.9056 0 1 0 41.009207 385.051961 160.20838 160.20838 0 0 0 291.29528 23.177617 160.219877 160.219877 0 0 0 291.847128-24.856155 193.951588 193.951588 0 0 0 173.740153-192.870885z" fill="#BFD94F" p-id="1202"></path><path d="M677.824647 754.192303a166.543136 166.543136 0 0 1-140.422329-77.028787 166.462658 166.462658 0 0 1-295.342166-28.466161 202.424754 202.424754 0 0 1-27.121031 1.839493c-110.369605 0-200.171375-89.790273-200.171375-200.159878a199.929941 199.929941 0 0 1 185.788836-199.654017 132.386042 132.386042 0 0 1 124.982081-87.904792c4.3573 0 8.783581 0.21844 13.209862 0.65532a200.194368 200.194368 0 0 1 393.51363-0.344905 132.93789 132.93789 0 0 1 116.45143 87.858804 200.194368 200.194368 0 0 1-14.865406 394.82427A166.508645 166.508645 0 0 1 677.824647 754.192303z m-140.422329-102.321822l5.483989 9.956258a153.965599 153.965599 0 0 0 280.522747-23.85593l1.299142-3.770962 3.966408-0.402389a187.674316 187.674316 0 0 0 14.175596-371.29025l-3.678987-0.666816-1.149683-3.552522a120.371851 120.371851 0 0 0-111.220371-82.97265l-5.196569-0.137962-0.816275-5.127588A186.766066 186.766066 0 0 0 535.539831 12.508555c-91.756231 0-171.486774 68.279696-185.443931 158.805767l-0.954237 6.116315-6.127813-0.885256a121.602012 121.602012 0 0 0-17.475187-1.276149 119.923474 119.923474 0 0 0-114.462478 83.306059l-1.322136 4.115866-4.311313 0.206943a187.398392 187.398392 0 0 0-178.200925 187.398393c0 103.471505 84.179818 187.651323 187.66282 187.651322a188.732025 188.732025 0 0 0 30.202182-2.437329l5.139085-0.827772 1.747519 4.897652a153.965599 153.965599 0 0 0 279.901917 22.234876z" fill="#541018" p-id="1203"></path><path d="M970.05117 440.018323c0-85.467463-63.669466-156.54089-147.619347-171.302825-15.003368-44.642206-57.794584-77.120762-108.622086-78.385413-13.807697-82.880675-88.054251-146.205236-177.729555-146.205237-90.008712 0-164.588674 63.899403-177.890511 147.35492a121.02717 121.02717 0 0 0-17.061301-1.207167c-52.276104 0-96.573405 33.030404-111.772219 78.695828-95.193785 4.598734-170.911932 80.673283-170.911933 173.878115 0 96.159519 80.592805 174.108052 180.005928 174.108052a187.800781 187.800781 0 0 0 28.972022-2.299366c20.567836 55.587192 75.499708 95.366237 140.042933 95.366237 56.162034 0 105.058068-30.133202 130.351103-74.591458 25.293035 44.458257 74.177572 74.591458 130.351102 74.591458 65.129564 0 120.463825-40.503346 140.583285-96.883819 90.629541-9.013518 161.300579-83.087618 161.300579-173.119325z" fill="#DCEF70" p-id="1204"></path></svg>