<?xml version="1.0" standalone="no"?><!DOCTYPE svg PUBLIC "-//W3C//DTD SVG 1.1//EN" "http://www.w3.org/Graphics/SVG/1.1/DTD/svg11.dtd"><svg t="1517895146642" class="icon" style="" viewBox="0 0 1094 1024" version="1.1" xmlns="http://www.w3.org/2000/svg" p-id="1317" xmlns:xlink="http://www.w3.org/1999/xlink" width="34.1875" height="32"><defs><style type="text/css"></style></defs><path d="M476.79729 8.498774c-5.328983 0.293339 24.359318 131.073421-109.231925 134.446813-84.921496 2.138927-153.220477 47.141942-130.780082 145.703679-48.669746-35.15173-257.575649 26.058237-229.256261 228.315134 22.318171 115.92982 126.184446 179.046488 198.003488 184.131022 116.0276 8.2257 689.345479 4.167851 689.345479 4.167851s198.357939-14.104693 194.568984-236.137494c4.974532-40.529603-47.300833-217.901617-209.358133-180.476513 0 0-10.78019-150.800435-211.44817-128.494486-0.04889 0 8.87349-182.884333-191.84338-151.656006z" fill="#FEFFD4" p-id="1318"></path><path d="M598.471656 711.130043c-159.392808 0-334.89479-1.026685-393.305819-5.157869-39.282914-2.786716-84.261485-22.073722-120.305453-51.590909-30.2872-24.725991-69.056772-68.580097-82.13478-136.48796v-0.256671c-6.991234-49.904213-0.305561-94.821671 19.861461-133.493463 16.744739-32.132788 42.986313-59.584383 75.86467-79.384732 45.467468-27.37826 100.969557-37.473994 131.513428-25.300446-6.392335-37.143988-0.085557-68.225647 18.785887-92.487185 23.491525-30.201643 65.658935-47.569727 118.728758-48.889751 45.540802-1.148909 76.500237-17.69809 92.034955-49.207533 12.78467-25.911568 12.087991-55.978764 11.770207-70.425686-0.073335-3.153389-0.134447-5.646766-0.061112-7.492354 0.146669-3.128944 1.124464-6.881232 5.023422-7.333462 64.241132-9.961287 114.230902 0.647789 148.563729 31.533889 44.343004 39.894036 48.584189 100.688441 48.779748 119.535439 68.04231-6.600116 121.662144 5.96455 159.392809 37.400659 39.1118 32.621686 48.98753 75.449107 51.334237 90.641597 28.368278-5.830103 55.074304-5.451207 79.445845 1.124464a150.433762 150.433762 0 0 1 61.845534 34.222825c51.44424 46.445263 71.965712 122.89661 68.665654 151.350445 0.831126 51.334238-9.069049 96.01947-29.419407 132.699005a200.997986 200.997986 0 0 1-68.714544 72.515722c-49.586429 31.582779-98.903965 35.445069-100.98178 35.555071h-0.30556c-2.835606-0.024445-142.036947 0.928905-296.381889 0.928905zM12.356884 516.157719c22.452618 116.320938 126.648898 175.318645 193.49341 180.06095 113.790894 8.066809 676.05969 4.241186 688.746579 4.155629 2.896718-0.244449 50.34422-4.656749 96.618369-34.222825 63.422229-40.56627 94.809448-106.824104 93.269421-196.915692V468.539102c1.356691-10.902414-2.028925-35.322845-12.662445-63.153335-8.592374-22.623732-24.787103-54.829855-52.776485-80.069188-37.315102-33.660593-83.699253-44.379671-137.856874-31.876118l-5.573431 1.320024-0.403341-5.707879c0-0.513342-4.387855-52.764263-48.608634-89.50491-36.667313-30.421647-89.60269-42.02074-157.473886-34.479496l-5.695655 0.635566 0.281116-5.732323c0-0.733346 2.921163-73.982415-45.540803-117.518737-31.472777-28.343833-77.636923-38.280674-137.245751-29.627189 0 1.540027 0 3.520062 0.085557 5.377873 0.354451 15.229157 1.075575 46.909715-12.772448 74.972432-17.258082 35.017284-51.089789 53.412052-100.553993 54.658741-50.111994 1.222244-89.60269 17.294749-111.224182 45.137461-18.700329 24.053757-23.711529 55.868762-14.911374 94.589445l2.872273 12.638-10.499074-7.590133c-21.193707-15.290269-78.651386-10.68241-130.462299 20.484805-41.16517 24.823771-107.70412 84.163705-91.10605 203.063578z" fill="#3F1103" p-id="1319"></path><path d="M496.9032 45.153864c-4.766751 0.268894 7.565689 137.661314-113.350886 140.826926-76.86691 1.980035-138.675777 43.597435-118.398753 134.752374-44.000775-32.499462-233.106329 24.102647-207.475878 211.179277 20.203689 107.190778 114.230902 165.552917 179.193157 170.258555 105.015184 7.614579 623.894326 3.86229 623.894326 3.862291s179.535386-13.041341 176.100881-218.41496c4.583414-37.473994-42.778532-201.535773-189.447783-166.92183 0 0-19.824794-139.812463-201.499106-119.180989 0.024445 0 32.658353-185.243264-149.015958-156.361644z" fill="#FFFFFF" p-id="1320"></path><path d="M786.880531 1019.111025H314.972216l-78.2236-285.980594h625.911028l-75.779113 285.980594z" fill="#A3C1FF" p-id="1321"></path><path d="M790.645042 1024H311.244373l-80.900314-295.782989H869.015311z m-471.944982-9.77795h464.452628l73.187956-276.227089H243.153173z" fill="#541018" p-id="1322"></path><path d="M205.508065 688.274085h697.913408v44.856346H205.508065z" fill="#A3C1FF" p-id="1323"></path><path d="M908.310448 738.019406h-707.679135v-54.585407h707.679135z m-697.901185-9.77795h688.123235v-35.029506h-688.123235z" fill="#541018" p-id="1324"></path><path d="M413.399506 1019.111025h-20.179244l-73.334626-285.980594h20.179245l73.334625 285.980594z" fill="#541018" p-id="1325"></path><path d="M414.193964 1019.722147h-21.438155l-0.122224-0.45223-73.530185-286.750608h21.474823l0.122224 0.464452z m-20.497027-1.222244h18.920333l-73.029064-284.782795h-18.908111zM472.067206 1019.111025h-20.179244l-33.000581-285.980594h20.179244l33.000581 285.980594zM513.207931 733.130431h18.675885v285.980594h-18.675885zM692.987766 1019.111025h20.167022l73.334625-285.980594h-20.167022l-73.334625 285.980594zM634.320065 1019.111025h20.167022l33.000582-285.980594h-20.167022l-33.000582 285.980594zM584.122514 733.130431h18.675885v285.980594h-18.675885z" fill="#541018" p-id="1326"></path></svg>