<?xml version="1.0" standalone="no"?><!DOCTYPE svg PUBLIC "-//W3C//DTD SVG 1.1//EN" "http://www.w3.org/Graphics/SVG/1.1/DTD/svg11.dtd"><svg t="1517895777848" class="icon" style="" viewBox="0 0 1024 1024" version="1.1" xmlns="http://www.w3.org/2000/svg" p-id="1443" xmlns:xlink="http://www.w3.org/1999/xlink" width="128" height="128"><defs><style type="text/css"></style></defs><path d="M701.3 497.3c-2.9 0-5.8-1.1-8-3.3l-71.4-71.4c-4.4-4.4-4.4-11.6 0-16l13.1-13.1c24.1-24.1 63.3-24.1 87.4 0 11.7 11.7 18.1 27.2 18.1 43.7 0 16.5-6.4 32-18.1 43.7L709.3 494c-2.2 2.2-5.1 3.3-8 3.3z m-55.4-82.8l55.4 55.4 5.1-5.1c7.4-7.4 11.5-17.2 11.5-27.7s-4.1-20.3-11.5-27.7c-15.3-15.3-40.1-15.3-55.4 0l-5.1 5.1zM791.7 366.9c-11 0-21.9-4.2-30.3-12.5-16.7-16.7-16.7-43.9 0-60.6l46.9-46.9c16.7-16.7 43.9-16.7 60.6 0 16.7 16.7 16.7 43.9 0 60.6L822 354.4c-8.3 8.3-19.3 12.5-30.3 12.5zM838.6 257c-5.2 0-10.3 2-14.3 5.9l-46.9 46.9c-7.9 7.9-7.9 20.7 0 28.6 7.9 7.9 20.7 7.9 28.6 0l46.9-46.9c7.9-7.9 7.9-20.7 0-28.6-3.9-3.9-9.1-5.9-14.3-5.9z" fill="#333333" p-id="1444"></path><path d="M830.5 272.8l-46.9 46.9c-9.1 9.1-11.4 22.4-7 33.7 11.3 4.3 24.6 2 33.7-7l46.9-46.9c9.1-9.1 11.4-22.4 7-33.7-11.3-4.4-24.6-2-33.7 7z" fill="#F85207" p-id="1445"></path><path d="M723.1 407c-19.1-10.3-43.5-7.4-59.7 8.7l-13.1 13.1 50.9 50.9 13.1-13.1c16.3-16.1 19.2-40.5 8.8-59.6z" fill="#D1D5D0" p-id="1446"></path><path d="M701.3 497.3c-2.9 0-5.8-1.1-8-3.3l-71.4-71.4c-4.4-4.4-4.4-11.6 0-16l13.1-13.1c24.1-24.1 63.3-24.1 87.4 0 11.7 11.7 18.1 27.2 18.1 43.7 0 16.5-6.4 32-18.1 43.7L709.3 494c-2.2 2.2-5.1 3.3-8 3.3z m-55.4-82.8l55.4 55.4 5.1-5.1c7.4-7.4 11.5-17.2 11.5-27.7s-4.1-20.3-11.5-27.7c-15.3-15.3-40.1-15.3-55.4 0l-5.1 5.1z" fill="#333333" p-id="1447"></path><path d="M626 572.5c-2.9 0-5.8-1.1-8-3.3l-71.4-71.4c-4.4-4.4-4.4-11.6 0-16l75.3-75.3c4.4-4.4 11.6-4.4 16 0l71.4 71.4c4.4 4.4 4.4 11.6 0 16L634 569.2c-2.2 2.2-5.1 3.3-8 3.3z m-55.4-82.7l55.4 55.4 59.3-59.3-55.4-55.4-59.3 59.3z" fill="#333333" p-id="1448"></path><path d="M597.8 529.3c-2.9 0-5.8-1.1-8-3.3-4.4-4.4-4.4-11.6 0-16l67.7-67.7c4.4-4.4 11.6-4.4 16 0s4.4 11.6 0 16L605.8 526c-2.2 2.2-5.1 3.3-8 3.3zM717 410.1c-2.9 0-5.8-1.1-8-3.3-4.4-4.4-4.4-11.6 0-16l47.6-47.6c4.4-4.4 11.6-4.4 16 0s4.4 11.6 0 16L725 406.8c-2.2 2.2-5.1 3.3-8 3.3z" fill="#333333" p-id="1449"></path><path d="M791.7 366.9c-11 0-21.9-4.2-30.3-12.5-16.7-16.7-16.7-43.9 0-60.6l46.9-46.9c16.7-16.7 43.9-16.7 60.6 0 16.7 16.7 16.7 43.9 0 60.6L822 354.4c-8.3 8.3-19.3 12.5-30.3 12.5zM838.6 257c-5.2 0-10.3 2-14.3 5.9l-46.9 46.9c-7.9 7.9-7.9 20.7 0 28.6 7.9 7.9 20.7 7.9 28.6 0l46.9-46.9c7.9-7.9 7.9-20.7 0-28.6-3.9-3.9-9.1-5.9-14.3-5.9z" fill="#333333" p-id="1450"></path><path d="M306.8 576.2m-124.9 0a124.9 124.9 0 1 0 249.8 0 124.9 124.9 0 1 0-249.8 0Z" fill="#FFB236" p-id="1451"></path><path d="M317.6 440.5c-27-2.1-52.6 3.8-74.6 15.5-7.2 3.8-8.1 13.8-1.7 18.8 0.1 0 0.1 0.1 0.2 0.1 3.5 2.7 8.2 3.2 12.2 1.1 19.6-10.5 42.5-15.5 66.8-12.6 52.5 6.3 94.5 49.2 99.4 101.9 6.7 71.4-53.2 131-124.7 123.8-52.7-5.3-95.5-47.8-101.2-100.5-1.7-16.2 0-31.9 4.5-46.2 1.3-4.2 0-8.7-3.3-11.6l-0.2-0.2c-6.1-5.4-15.7-2.6-18.1 5.2-5.1 16.2-7.2 33.8-5.6 52 5.6 65.9 59.2 119.2 125.2 124.1 83.5 6.3 152.9-63.3 146.2-146.9-5.5-66-59.1-119.4-125.1-124.5z" fill="#333333" p-id="1452"></path><path d="M218 505.7c1-1.2 2-2.5 3-3.6 4.1-4.8 3.3-12.1-1.7-16-0.1-0.1-0.2-0.1-0.2-0.2-4.7-3.6-11.5-3-15.3 1.5-1.1 1.3-2.3 2.7-3.4 4.1-3.8 4.7-3 11.6 1.7 15.5l0.2 0.2c4.6 4 11.8 3.4 15.7-1.5zM306.8 670.8c-52.2 0-94.6-42.4-94.6-94.6s42.4-94.6 94.6-94.6 94.6 42.4 94.6 94.6-42.5 94.6-94.6 94.6z m0-166.5c-39.7 0-72 32.3-72 72s32.3 71.9 72 71.9 71.9-32.3 71.9-71.9c0-39.8-32.3-72-71.9-72z" fill="#333333" p-id="1453"></path><path d="M306.8 626.1c-27.5 0-49.8-22.4-49.8-49.8s22.4-49.8 49.8-49.8c27.5 0 49.8 22.4 49.8 49.8s-22.4 49.8-49.8 49.8z m0-77.1c-15 0-27.2 12.2-27.2 27.2s12.2 27.2 27.2 27.2 27.2-12.2 27.2-27.2-12.2-27.2-27.2-27.2z" fill="#333333" p-id="1454"></path><path d="M693.4 659.5m-125.5 0a125.5 125.5 0 1 0 251 0 125.5 125.5 0 1 0-251 0Z" fill="#FFB236" p-id="1455"></path><path d="M804.8 634.1c3 13.2 3.8 27.2 1.7 41.7-7.3 51.8-50.2 92.6-102.3 97.5-71.8 6.6-131.8-53.7-124.4-125.6 5.3-52.1 46.7-94.7 98.7-101.3 45.7-5.8 87 15.6 110.1 50.2 3 4.5 8.7 6.3 13.6 4.2 0.1 0 0.2-0.1 0.3-0.1 6.5-2.8 8.9-10.8 4.9-16.7-26.6-39.9-73.5-65.1-125.9-60.6-65.8 5.6-119 59-124.4 124.8-6.9 83.9 62.4 153.9 146.1 148.1 63.8-4.4 116.9-53.8 125.8-117.2 2.4-17.4 1.5-34.3-2.2-50.1-1.6-6.7-9-10.3-15.3-7.5-0.1 0-0.2 0.1-0.3 0.1-4.9 1.9-7.6 7.2-6.4 12.5z" fill="#333333" p-id="1456"></path><path d="M693.4 752.2c-51.1 0-92.7-41.6-92.7-92.7s41.6-92.7 92.7-92.7 92.7 41.6 92.7 92.7-41.6 92.7-92.7 92.7z m0-162.7c-38.6 0-70 31.4-70 70s31.4 70 70 70 70-31.4 70-70c0.1-38.6-31.4-70-70-70z" fill="#333333" p-id="1457"></path><path d="M693.4 712.3c-29.1 0-52.8-23.7-52.8-52.8s23.7-52.8 52.8-52.8c29.1 0 52.8 23.7 52.8 52.8s-23.7 52.8-52.8 52.8z m0-82.9c-16.6 0-30.1 13.5-30.1 30.1s13.5 30.1 30.1 30.1 30.1-13.5 30.1-30.1c0.1-16.6-13.5-30.1-30.1-30.1z" fill="#333333" p-id="1458"></path><path d="M489.1 642.3m-187.2 0a187.2 187.2 0 1 0 374.4 0 187.2 187.2 0 1 0-374.4 0Z" fill="#FFB236" p-id="1459"></path><path d="M489.1 840.8c-109.4 0-198.5-89-198.5-198.5 0-109.4 89-198.5 198.5-198.5 109.4 0 198.5 89 198.5 198.5s-89 198.5-198.5 198.5z m0-374.3c-97 0-175.8 78.9-175.8 175.8s78.9 175.8 175.8 175.8S665 739.3 665 642.3s-78.9-175.8-175.9-175.8z" fill="#333333" p-id="1460"></path><path d="M383.2 562.8c4.8-6.4 10.2-12.4 16-17.8 4.1-3.8 4.7-10 1.5-14.6l-0.2-0.2c-3.9-5.4-11.8-6.4-16.7-1.8-6.9 6.4-13.2 13.3-18.8 20.8-4 5.3-2.3 13 3.5 16.4 0.1 0 0.2 0.1 0.3 0.1 4.9 2.9 11.1 1.6 14.4-2.9z" fill="#333333" p-id="1461"></path><path d="M498.6 487.4c-24-1.4-46.8 2.6-67.5 11-6.3 2.6-8.8 10.3-5.2 16.1 0 0.1 0.1 0.1 0.1 0.2 2.9 4.7 8.7 6.6 13.8 4.5 17.9-7.2 37.7-10.6 58.5-9.3 64.9 4.4 117.9 56.6 123 121.5 6.4 81.3-61 149-142.2 142.9-64.9-4.8-117.4-57.7-122.1-122.6-1.5-20.9 2-40.8 9.2-58.8 2-5.1 0.2-10.9-4.5-13.7-0.1 0-0.1-0.1-0.2-0.1-5.9-3.6-13.7-1.2-16.2 5.1-8.3 20.6-12.4 43.3-11 67.2 4.5 76.3 73.8 143.6 150.2 145.9 89.3 2.6 162.5-70.6 159.8-160-2.4-76.1-69.6-145.3-145.7-149.9z" fill="#333333" p-id="1462"></path><path d="M489.1 750.4c-59.6 0-108.1-48.5-108.1-108.1 0-59.6 48.5-108.1 108.1-108.1s108.1 48.5 108.1 108.1c0.1 59.6-48.4 108.1-108.1 108.1z m0-193.6c-47.1 0-85.5 38.4-85.5 85.5s38.4 85.5 85.5 85.5 85.5-38.4 85.5-85.5-38.3-85.5-85.5-85.5z" fill="#333333" p-id="1463"></path><path d="M489.1 701c-32.4 0-58.7-26.3-58.7-58.7 0-32.4 26.3-58.7 58.7-58.7s58.7 26.3 58.7 58.7c0.1 32.4-26.3 58.7-58.7 58.7z m0-94.8c-19.9 0-36.1 16.2-36.1 36.1 0 19.9 16.2 36.1 36.1 36.1 19.9 0 36.1-16.2 36.1-36.1 0-19.9-16.2-36.1-36.1-36.1z" fill="#333333" p-id="1464"></path><path d="M395 487.1c-16.7-102.8-118.7-94.6-118.7-94.6s19 102.3 118.7 94.6z" fill="#97CE4B" p-id="1465"></path><path d="M384.4 498.8c-98.7 0-119-103.2-119.2-104.3-0.6-3.2 0.2-6.4 2.1-9 2-2.5 4.9-4.1 8.1-4.4 1.2-0.1 112.6-7.7 130.8 104.1 0.5 3.1-0.3 6.3-2.3 8.8-2 2.5-4.9 4-8 4.3-3.9 0.4-7.8 0.5-11.5 0.5z m-93.2-94.9c8.1 23.8 31.4 70.4 90 72.2-15.7-59.2-65.4-70.4-90-72.2z" fill="#333333" p-id="1466"></path><path d="M345.3 518c103.9-5.8 106.6-108.1 106.6-108.1S348.1 418 345.3 518z" fill="#97CE4B" p-id="1467"></path><path d="M345.3 529.3c-2.9 0-5.8-1.1-7.9-3.2-2.3-2.2-3.5-5.3-3.4-8.4 3.1-108.9 115.9-119 117-119.1 3.2-0.2 6.4 0.9 8.7 3.1 2.3 2.2 3.6 5.3 3.5 8.5 0 1.1-4.2 112.8-117.3 119.1h-0.6zM439 423.5c-24.5 5.5-73.3 23.8-81.3 81.9 60.5-9.4 76.8-57.7 81.3-81.9z" fill="#333333" p-id="1468"></path><path d="M799.9 723.8H234c0 74.8 65.1 136.1 144.6 136.1h276.8c79.4 0 144.5-61.3 144.5-136.1zM875 692.9c0-17-14.2-30.9-31.5-30.9H188.8c-17.3 0-31.5 13.9-31.5 30.9s14.2 30.9 31.5 30.9h654.7c17.3 0 31.5-13.9 31.5-30.9z" fill="#E2E2E2" p-id="1469"></path><path d="M787.6 778.4c7.9-16.8 12.3-35.2 12.3-54.7H234c0 19.4 4.4 37.9 12.3 54.7h541.3z" fill="#C3C3C3" p-id="1470"></path><path d="M655.8 645.2c-18.8 0-34.2 15.3-34.2 34.2v4.4c-4-1.6-8.3-2.5-12.9-2.5-18.8 0-34.2 15.3-34.2 34.2V760c0 18.8 15.3 34.2 34.2 34.2 4.7 0 9.2-1 13.3-2.7 2.6 16.3 16.7 28.8 33.7 28.8 18.8 0 34.2-15.3 34.2-34.2V679.3c0.1-18.8-15.2-34.1-34.1-34.1z" fill="#C3C3C3" p-id="1471"></path><path d="M884 448.9h-8.4c-2.8 0-5.1-2.3-5.1-5.1v-8.4c0-2.7-1.6-5.3-4.1-6.2-4.3-1.4-8.3 1.8-8.3 5.9v8.7c0 2.8-2.3 5.1-5.1 5.1h-8.4c-2.7 0-5.3 1.6-6.2 4.1-1.4 4.3 1.8 8.3 5.9 8.3h8.7c2.8 0 5.1 2.3 5.1 5.1v8.4c0 2.7 1.6 5.3 4.1 6.2 4.3 1.4 8.3-1.8 8.3-5.9v-8.7c0-2.8 2.3-5.1 5.1-5.1h8.7c4.1 0 7.3-4 5.9-8.3-0.9-2.5-3.5-4.1-6.2-4.1z" fill="#333333" p-id="1472"></path><path d="M904.4 376.7m-7.5 0a7.5 7.5 0 1 0 15 0 7.5 7.5 0 1 0-15 0Z" fill="#333333" p-id="1473"></path><path d="M896.9 535.8m-5.3 0a5.3 5.3 0 1 0 10.6 0 5.3 5.3 0 1 0-10.6 0Z" fill="#333333" p-id="1474"></path><path d="M951.6 499.2m-8.8 0a8.8 8.8 0 1 0 17.6 0 8.8 8.8 0 1 0-17.6 0Z" fill="#333333" p-id="1475"></path><path d="M115.5 588.7h-8.4c-2.8 0-5.1-2.3-5.1-5.1v-8.4c0-2.7-1.6-5.3-4.1-6.2-4.3-1.4-8.3 1.8-8.3 5.9v8.7c0 2.8-2.3 5.1-5.1 5.1h-8.4c-2.7 0-5.3 1.6-6.2 4.1-1.4 4.3 1.8 8.3 5.9 8.3h8.7c2.8 0 5.1 2.3 5.1 5.1v8.4c0 2.7 1.6 5.3 4.1 6.2 4.3 1.4 8.3-1.8 8.3-5.9v-8.7c0-2.8 2.3-5.1 5.1-5.1h8.7c4.1 0 7.3-4 5.9-8.3-0.9-2.5-3.5-4.1-6.2-4.1z" fill="#333333" p-id="1476"></path><path d="M128 320m-7.5 0a7.5 7.5 0 1 0 15 0 7.5 7.5 0 1 0-15 0Z" fill="#333333" p-id="1477"></path><path d="M151.9 449.8m-5.3 0a5.3 5.3 0 1 0 10.6 0 5.3 5.3 0 1 0-10.6 0Z" fill="#333333" p-id="1478"></path><path d="M206.6 413.3m-8.8 0a8.8 8.8 0 1 0 17.6 0 8.8 8.8 0 1 0-17.6 0Z" fill="#333333" p-id="1479"></path><path d="M696 255.5h-8.4c-2.8 0-5.1-2.3-5.1-5.1V242c0-2.7-1.6-5.3-4.1-6.2-4.3-1.4-8.3 1.8-8.3 5.9v8.7c0 2.8-2.3 5.1-5.1 5.1h-8.4c-2.7 0-5.3 1.6-6.2 4.1-1.4 4.3 1.8 8.3 5.9 8.3h8.7c2.8 0 5.1 2.3 5.1 5.1v8.4c0 2.7 1.6 5.3 4.1 6.2 4.3 1.4 8.3-1.8 8.3-5.9V273c0-2.8 2.3-5.1 5.1-5.1h8.7c4.1 0 7.3-4 5.9-8.3-0.9-2.6-3.5-4.1-6.2-4.1z" fill="#333333" p-id="1480"></path><path d="M553.4 411.5m-8.8 0a8.8 8.8 0 1 0 17.6 0 8.8 8.8 0 1 0-17.6 0Z" fill="#333333" p-id="1481"></path><path d="M551.5 269.9h-0.4c-1.1 0-1.9-0.9-1.9-1.9v-12.5c0-1.1 0.9-1.9 1.9-1.9h0.4c1.1 0 1.9 0.9 1.9 1.9V268c0 1-0.9 1.9-1.9 1.9zM544.4 272.4l-0.3 0.3c-0.8 0.8-2 0.8-2.7 0l-8.8-8.8c-0.8-0.8-0.8-2 0-2.7l0.3-0.3c0.8-0.8 2-0.8 2.7 0l8.8 8.8c0.7 0.7 0.7 2 0 2.7zM541.2 279.3v0.4c0 1.1-0.9 1.9-1.9 1.9h-12.5c-1.1 0-1.9-0.9-1.9-1.9v-0.4c0-1.1 0.9-1.9 1.9-1.9h12.5c1-0.1 1.9 0.8 1.9 1.9zM543.8 286.3l0.3 0.3c0.8 0.8 0.8 2 0 2.7l-8.8 8.8c-0.8 0.8-2 0.8-2.7 0l-0.3-0.3c-0.8-0.8-0.8-2 0-2.7l8.8-8.8c0.7-0.7 1.9-0.7 2.7 0zM550.6 289.5h0.4c1.1 0 1.9 0.9 1.9 1.9V304c0 1.1-0.9 1.9-1.9 1.9h-0.4c-1.1 0-1.9-0.9-1.9-1.9v-12.5c0-1.1 0.8-2 1.9-2zM557.7 286.9l0.3-0.3c0.8-0.8 2-0.8 2.7 0l8.8 8.8c0.8 0.8 0.8 2 0 2.7l-0.3 0.3c-0.8 0.8-2 0.8-2.7 0l-8.8-8.8c-0.8-0.7-0.8-1.9 0-2.7zM560.9 280.1v-0.4c0-1.1 0.9-1.9 1.9-1.9h12.5c1.1 0 1.9 0.9 1.9 1.9v0.4c0 1.1-0.9 1.9-1.9 1.9h-12.5c-1.1 0.1-1.9-0.8-1.9-1.9zM558.3 273l-0.3-0.3c-0.8-0.8-0.8-2 0-2.7l8.8-8.8c0.8-0.8 2-0.8 2.7 0l0.3 0.3c0.8 0.8 0.8 2 0 2.7L561 273c-0.7 0.8-1.9 0.8-2.7 0z" fill="#333333" p-id="1482"></path><path d="M551.8 770.1m-14.9 0a14.9 14.9 0 1 0 29.8 0 14.9 14.9 0 1 0-29.8 0Z" fill="#333333" p-id="1483"></path><path d="M426.1 770.1m-14.9 0a14.9 14.9 0 1 0 29.8 0 14.9 14.9 0 1 0-29.8 0Z" fill="#333333" p-id="1484"></path><path d="M489 836.1c-17.3 0-31.4-14.1-31.4-31.4v-0.9c0.3-4.3 4-7.6 8.3-7.4 4.3 0.2 7.6 3.7 7.6 7.9v0.7c0 8.2 7 15.2 15.5 15.2s15.5-7 15.5-15.5c0-4.4 3.5-7.9 7.9-7.9s7.9 3.5 7.9 7.9c0 17.3-14 31.4-31.3 31.4z" fill="#333333" p-id="1485"></path><path d="M576 808.6m-19.1 0a19.1 19.1 0 1 0 38.2 0 19.1 19.1 0 1 0-38.2 0Z" fill="#FFB236" p-id="1486"></path><path d="M404.1 810.4m-19.1 0a19.1 19.1 0 1 0 38.2 0 19.1 19.1 0 1 0-38.2 0Z" fill="#FFB236" p-id="1487"></path><path d="M663.8 848.5H334.5c-65 0-118.5-49.9-124.3-113.4h-22.7c5.8 76 69.5 136.1 146.9 136.1h329.2c77.5 0 141.1-60.1 146.9-136.1H788c-5.7 63.5-59.2 113.4-124.2 113.4z" fill="#333333" p-id="1488"></path><path d="M290.8 712.5h-4.9c-6 0-10.9 4.7-11.2 10.7v0.2c-0.3 6.4 4.8 11.7 11.2 11.7h4.2c6.9 0 11.9-5 11.9-11.2v-0.2c0-6.2-5-11.2-11.2-11.2z" fill="#333333" p-id="1489"></path><path d="M844.1 650.7H156c-21.6 0-41.1 15.5-43.7 37-3.1 25.6 16.9 47.4 41.9 47.4H249c6.1 0 11.1-4.9 11.2-11v-0.2c0.1-6.3-4.9-11.4-11.2-11.4h-93.9c-9.5 0-18.3-6.4-20-15.7-2.4-12.4 7.2-23.3 19.2-23.3h689.1c9.5 0 18.3 6.4 20.1 15.7 2.4 12.4-7.2 23.3-19.2 23.3H343.7c-6.2 0-11.2 5-11.2 11.2v0.2c0 6.2 5 11.2 11.2 11.2h498.6c21.6 0 41.1-15.5 43.7-37 3.1-25.6-16.9-47.4-41.9-47.4z" fill="#333333" p-id="1490"></path><path d="M674.7 767H637c-2.2 0-4-1.8-4-4V618.8c0-2.2 1.8-4 4-4h37.6c2.2 0 4 1.8 4 4v144.1c0.1 2.2-1.7 4.1-3.9 4.1z" fill="#FFB236" p-id="1491"></path><path d="M655.8 778.3c-18.8 0-34.2-15.3-34.2-34.2V637.6c0-18.8 15.3-34.2 34.2-34.2 18.8 0 34.2 15.3 34.2 34.2v106.5c0 18.8-15.3 34.2-34.2 34.2z m0-152.2c-6.4 0-11.5 5.2-11.5 11.5v106.5c0 6.4 5.2 11.5 11.5 11.5 6.4 0 11.5-5.2 11.5-11.5V637.6c0.1-6.4-5.1-11.5-11.5-11.5z" fill="#333333" p-id="1492"></path><path d="M627.6 740.9H590c-2.2 0-4-1.8-4-4v-82.1c0-2.2 1.8-4 4-4h37.6c2.2 0 4 1.8 4 4v82.1c0 2.1-1.8 4-4 4z" fill="#FFB236" p-id="1493"></path><path d="M608.8 752.2c-18.8 0-34.2-15.3-34.2-34.2v-44.5c0-18.8 15.3-34.2 34.2-34.2 18.8 0 34.2 15.3 34.2 34.2V718c0 18.9-15.4 34.2-34.2 34.2z m0-90.2c-6.4 0-11.5 5.2-11.5 11.5V718c0 6.4 5.2 11.5 11.5 11.5 6.4 0 11.5-5.2 11.5-11.5v-44.5c0-6.3-5.1-11.5-11.5-11.5z" fill="#333333" p-id="1494"></path><path d="M299.3 797.7c-3 0-6-1.1-8.2-3.4-14.9-14.9-22.2-29.8-22.5-30.5-2.8-5.8-0.4-12.7 5.4-15.5 5.8-2.8 12.7-0.4 15.5 5.4 0.2 0.3 6.2 12.3 18 24.2 4.5 4.5 4.5 11.9 0 16.4-2.2 2.3-5.2 3.4-8.2 3.4z" fill="#FFFFFF" p-id="1495"></path><path d="M313.247704 813.570083a11.6 11.6 0 1 0 22.667112-4.943887 11.6 11.6 0 1 0-22.667112 4.943887Z" fill="#FFFFFF" p-id="1496"></path></svg>