<?xml version="1.0" standalone="no"?><!DOCTYPE svg PUBLIC "-//W3C//DTD SVG 1.1//EN" "http://www.w3.org/Graphics/SVG/1.1/DTD/svg11.dtd"><svg t="1517895235906" class="icon" style="" viewBox="0 0 1024 1024" version="1.1" xmlns="http://www.w3.org/2000/svg" p-id="3456" xmlns:xlink="http://www.w3.org/1999/xlink" width="32" height="32"><defs><style type="text/css"></style></defs><path d="M539.327949 4.578361h-30.883954V69.417536a79.921506 79.921506 0 0 1-79.921505 79.921506h-2.85434a79.921506 79.921506 0 0 1-79.921505-79.921506V51.697797A227.947552 227.947552 0 0 0 256.325897 232.92552v532.117384h511.349211V232.92552c0-126.127553-102.24244-228.347159-228.347159-228.347159z" fill="#FFBFBE" p-id="3457"></path><path d="M772.242051 769.609847H251.758954V232.92552a230.436536 230.436536 0 0 1 24.809919-104.697173 235.197574 235.197574 0 0 1 66.391936-80.138435l7.352779-5.640175V69.417536a75.434484 75.434484 0 0 0 75.354562 75.354563h2.85434a75.434484 75.434484 0 0 0 75.354562-75.354563V0.011417h35.450897c128.422442 0 232.914102 104.480243 232.914102 232.914103zM260.89284 760.475961h502.215324V232.92552c0-123.387387-100.392828-223.780216-223.780215-223.780216h-26.31701V69.417536a84.579788 84.579788 0 0 1-84.488449 84.488449h-2.85434a84.579788 84.579788 0 0 1-84.488449-84.488449v-8.20908A222.20462 222.20462 0 0 0 260.89284 232.92552z" fill="#551E00" p-id="3458"></path><path d="M483.885258 761.617697h62.258853v257.81536h-62.258853z" fill="#A3520F" p-id="3459"></path><path d="M550.722472 1024h-71.392739V757.050754h71.392739z m-62.258853-9.133886h53.124966V766.18464h-53.124966z" fill="#520E17" p-id="3460"></path><path d="M256.325897 657.651235c-0.742128 10.035858 15.276425 44.03675 58.228526-21.818571 20.09455-30.826866 27.846936-49.277317 49.619837-51.149763 27.926858-2.42048 45.486754 59.29034 56.161984 69.645883 42.643832 41.342253 73.151012-49.779681 101.157792-86.851842 29.159932-38.602087 61.756489 22.229596 81.337258 48.261172 43.968245 58.456873 87.616805 95.574703 164.843814-31.100883v176.969049H256.325897z" fill="#5B2A08" p-id="3461"></path></svg>