<?xml version="1.0" standalone="no"?><!DOCTYPE svg PUBLIC "-//W3C//DTD SVG 1.1//EN" "http://www.w3.org/Graphics/SVG/1.1/DTD/svg11.dtd"><svg t="1517895188706" class="icon" style="" viewBox="0 0 1242 1024" version="1.1" xmlns="http://www.w3.org/2000/svg" p-id="2434" xmlns:xlink="http://www.w3.org/1999/xlink" width="38.8125" height="32"><defs><style type="text/css"></style></defs><path d="M425.942725 725.485907L1174.25267 0.066933l24.021853 24.779029-748.312734 725.418974zM470.084815 783.169312L1218.397549 57.750337l24.021853 24.779029-748.312734 725.420369z" fill="#541018" p-id="2435"></path><path d="M792.468768 547.676503m-247.079131 0a247.079131 247.079131 0 1 0 494.158263 0 247.079131 247.079131 0 1 0-494.158263 0Z" fill="#F9D782" p-id="2436"></path><path d="M792.454824 800.612242c-139.443045 0-252.935739-113.464806-252.935739-252.935739s113.464806-252.949683 252.935739-252.949683 252.949683 113.47875 252.949683 252.949683-113.464806 252.935739-252.949683 252.935739z m0-494.144318c-132.986832 0-241.236468 108.207803-241.236468 241.236468s108.207803 241.236468 241.236468 241.236467 241.236468-108.193859 241.236468-241.236467-108.235691-241.236468-241.236468-241.236468z" fill="#541018" p-id="2437"></path><path d="M792.622156 554.132716m-183.813822 0a183.813822 183.813822 0 1 0 367.627643 0 183.813822 183.813822 0 1 0-367.627643 0Z" fill="#FFFF54" p-id="2438"></path><path d="M792.677933 743.803146c-104.582284 0-189.642541-85.060257-189.642541-189.642541s85.060257-189.642541 189.642541-189.642541 189.642541 85.060257 189.642541 189.642541-85.060257 189.642541-189.642541 189.642541z m0-367.627644a177.94327 177.94327 0 1 0 177.887492 177.94327 178.13849 178.13849 0 0 0-177.887492-177.94327z" fill="#541018" p-id="2439"></path><path d="M766.504473 630.254674m-183.813821 0a183.813822 183.813822 0 1 0 367.627643 0 183.813822 183.813822 0 1 0-367.627643 0Z" fill="#F9FFAA" p-id="2440"></path><path d="M766.504473 819.939048c-104.582284 0-189.642541-85.060257-189.642541-189.642541s85.060257-189.642541 189.642541-189.642541 189.642541 85.060257 189.642541 189.642541-85.060257 189.642541-189.642541 189.642541z m0-367.627643A177.94327 177.94327 0 1 0 944.447743 630.254674a178.13849 178.13849 0 0 0-177.94327-177.943269z" fill="#541018" p-id="2441"></path><path d="M391.75129 509.510942m-317.497869 0a317.497869 317.497869 0 1 0 634.995738 0 317.497869 317.497869 0 1 0-634.995738 0Z" fill="#F9D782" p-id="2442"></path><path d="M391.737346 832.879363a323.354477 323.354477 0 1 1 228.686594-94.709716 321.234942 321.234942 0 0 1-228.686594 94.709716z m0-634.995738c-171.82172-0.027889-311.613372 139.791652-311.613372 311.627317s139.791652 311.655205 311.613372 311.655205 311.697038-139.833485 311.697038-311.655205-139.861374-311.655205-311.697038-311.655206z" fill="#541018" p-id="2443"></path><path d="M391.946511 514.028896m-236.202574 0a236.202574 236.202574 0 1 0 472.405147 0 236.202574 236.202574 0 1 0-472.405147 0Z" fill="#FFFF54" p-id="2444"></path><path d="M391.946511 756.102022c-133.488827 0-242.073126-108.598243-242.073126-242.073126s108.584299-242.073126 242.073126-242.073126 242.073126 108.584299 242.073125 242.073126-108.598243 242.073126-242.073125 242.073126z m0-472.405147c-127.004725 0-230.332022 103.327296-230.332022 230.332021S264.941785 744.360918 391.946511 744.360918s230.332022-103.327296 230.332021-230.332022-103.327296-230.332022-230.332021-230.332021z" fill="#541018" p-id="2445"></path><path d="M395.070035 547.620726m-193.393559 0a193.393559 193.393559 0 1 0 386.787118 0 193.393559 193.393559 0 1 0-386.787118 0Z" fill="#F9D782" p-id="2446"></path><path d="M395.070035 746.870893c-109.881119 0-199.264111-89.382992-199.264111-199.250167s89.382992-199.264111 199.264111-199.264111 199.250167 89.341159 199.250167 199.264111-89.382992 199.250167-199.250167 199.250167z m0-386.773174c-103.397018 0-187.523007 84.125989-187.523007 187.523007s84.125989 187.509062 187.523007 187.509062 187.509062-84.084156 187.509062-187.509062-84.125989-187.523007-187.509062-187.523007z" fill="#541018" p-id="2447"></path><path d="M223.178593 612.057357a179.923361 170.748008 90 1 0 341.496017 0 179.923361 170.748008 90 1 0-341.496017 0Z" fill="#F9FFAA" p-id="2448"></path><path d="M393.870825 797.85127c-97.387023 0-176.632505-83.345108-176.632505-185.793913s79.30126-185.793913 176.632505-185.793913 176.674338 83.345108 176.674337 185.738136-79.231538 185.84969-176.674337 185.84969z m0-359.846722c-90.916865 0-164.891401 78.088105-164.891401 174.052809s73.904814 174.052809 164.891401 174.052808 164.877456-78.088105 164.877456-174.052808-73.904814-174.052809-164.877456-174.052809z" fill="#541018" p-id="2449"></path><path d="M6.051828 517.66836c8.631524 277.700824 264.34218 500.461088 578.549193 500.461088s569.903724-222.760264 578.535249-500.461088z" fill="#FFBFBE" p-id="2450"></path><path d="M584.601021 1024c-153.178185 0-297.961898-52.388752-407.703574-147.530741S4.420345 654.001825 0.181276 517.86358L0 511.797808h1169.174154l-0.19522 6.065772c-4.183291 136.138245-66.932662 263.547355-176.702227 358.605679s-254.511445 147.530741-407.675686 147.530741zM12.145489 523.552856c12.061823 274.535467 262.222646 488.650262 572.455532 488.650262s560.393709-214.114795 572.441588-488.650262z" fill="#551E00" p-id="2451"></path><path d="M618.61118 524.556846c-1.589651 40.034098-9.607626 82.745503-37.552012 113.28353-11.880547 12.968203-26.689399 23.398543-43.715395 28.265105-19.326806 5.577722-39.824934 3.10958-59.402737 7.292871-35.014149 7.460203-53.629795 38.653612-54.968448 72.761381-1.492041 37.99823 19.215252 70.669735 39.155607 101.291428 22.310887 34.289045 51.064043 80.709634 28.753156 121.984776-5.396446 9.970178 9.761013 18.866644 15.213236 8.882522 19.396528-35.878695 7.669367-78.227548-11.294887-111.693879s-48.149683-64.910737-53.51824-104.122122c-2.063757-15.004072-0.655382-31.653571 6.149438-45.360823 7.864588-15.826786 21.390563-24.472254 38.639668-27.428446 19.9543-3.430299 40.438483-1.310765 59.960509-7.864588a114.008633 114.008633 0 0 0 45.360823-29.28304c32.936447-34.121713 43.060012-82.145898 44.872771-128.036603 0.446218-11.33672-17.179383-11.322775-17.611656 0z" fill="#551E00" p-id="2452"></path></svg>