<?xml version="1.0" standalone="no"?><!DOCTYPE svg PUBLIC "-//W3C//DTD SVG 1.1//EN" "http://www.w3.org/Graphics/SVG/1.1/DTD/svg11.dtd"><svg t="1517895163011" class="icon" style="" viewBox="0 0 1181 1024" version="1.1" xmlns="http://www.w3.org/2000/svg" p-id="1686" xmlns:xlink="http://www.w3.org/1999/xlink" width="36.90625" height="32"><defs><style type="text/css"></style></defs><path d="M135.227991 676.555728c-86.977277 3.001506-272.486301-299.327204 63.15116-373.607844 0.464835 16.18954-22.697231-244.954786 203.332128-294.838226C575.466618-15.982078 656.427601 116.084198 670.545305 120.201308c14.901283 4.329606 222.05834-194.168237 419.002306-24.994844 110.883079 106.101918 77.786824 297.335054 28.368219 375.533589 140.871579 134.496699 27.079961 598.654409-344.09746 418.856215-95.065406 108.90421-304.134927 220.770083-489.949414 11.00995 0-0.026562-311.585569 86.034326-148.640965-224.05049z" fill="#FFFFFF" p-id="1687"></path><path d="M515.529459 1024c-84.998408 0-163.449281-39.53754-233.440157-117.53686-21.010544 5.3124-135.466212 31.064262-181.033327-25.552647-30.997857-38.514903-22.298801-105.623802 25.831547-199.65329-48.316282-7.29127-114.468949-86.499161-125.35937-172.347553-5.910046-46.603033 5.392086-89.434262 32.697825-123.845335 32.047056-40.374244 85.396838-69.37995 158.641559-86.246822a367.697798 367.697798 0 0 1 20.731643-129.303828c14.104423-39.510978 34.703256-73.045506 61.238696-99.700475 33.043131-33.202503 75.356401-55.660676 125.744519-66.763593l0.411711-0.079686c61.809779-8.566246 119.369639 1.421067 171.085857 29.669756 42.499204 23.188628 70.548678 52.685732 87.335864 70.309621 4.860846 5.113185 9.867784 10.372462 12.125554 11.952901 3.346812-1.208571 12.484141-7.118617 21.329288-12.842728 31.622064-20.466023 90.47018-58.569215 161.722751-73.815805 87.654608-18.752774 167.832012 2.456985 238.367409 63.044913l0.199215 0.185934c63.629277 60.89339 76.4056 143.434813 75.914203 202.057151-0.517959 63.562872-17.916071 132.212367-44.517916 176.451382 36.137604 36.61572 56.855966 96.951309 56.988776 166.490631 0.119529 71.066637-21.249602 142.770763-58.702025 196.718189-34.703256 50.029531-81.930496 83.285158-136.528692 96.247416-62.487111 14.768473-133.513905 3.546027-211.167919-33.375156a415.310188 415.310188 0 0 1-108.426093 86.49916c-49.61782 27.305738-100.085625 41.25079-150.194843 41.423443z m-229.907411-129.330389l2.164803 2.443704c68.45028 77.242303 145.068376 116.407975 227.742608 116.407975h0.969513c105.145686-0.411711 199.825944-66.0597 253.335098-127.391363l2.6562-3.014787 3.599151 1.739811c194.168237 94.069331 295.223375 4.263201 338.147571-57.679388 75.701707-109.076863 75.701707-280.454902 0-352.650425l-3.081192-2.908539 2.297613-3.625713c26.880746-42.499204 44.584321-111.042451 45.155404-174.538918 0.464835-56.484098-11.740405-136.024014-72.580671-194.314328-158.800931-136.289634-324.919694-28.77993-387.459929 11.713843-19.443386 12.577108-24.715943 15.817672-29.483822 14.423168-3.824928-1.102323-7.809229-5.17959-17.265302-15.100499-33.056412-34.703256-110.418244-115.996264-249.178144-96.858341-87.734294 19.403543-147.923791 72.886134-178.895086 158.933741-19.921502 55.434899-20.877734 106.832373-20.492584 124.257047h0.172653l0.185934 6.335037c0.159372 5.471772-4.263201 6.029575-4.781161 6.082699a5.3124 5.3124 0 0 1-2.018712-0.225777C19.178602 348.966553 4.675749 450.473245 11.913895 507.58155c5.04678 39.763318 23.48081 81.864091 50.388118 115.385339 24.530009 30.546303 52.380269 49.060018 72.753325 48.356125l9.004518-0.318744-4.196796 7.968601C90.617108 772.723458 80.29777 838.437852 109.197228 874.323117c44.942908 55.780205 172.002246 21.568346 173.277223 21.249602z" fill="#541018" p-id="1688"></path><path d="M317.257393 481.285168a164.046926 157.486112 90 1 0 314.972224 0 164.046926 157.486112 90 1 0-314.972224 0Z" fill="#F9D15D" p-id="1689"></path><path d="M474.743505 646.633633c-87.561641 0-158.78765-74.174392-158.78765-165.348465s71.226009-165.361746 158.78765-165.361746 158.800931 74.187673 158.800931 165.361746-71.23929 165.348465-158.800931 165.348465z m0-328.040729c-86.074169-0.079686-156.171293 72.96582-156.171293 162.692264s70.097124 162.732107 156.171293 162.732107 156.184574-73.045506 156.184573-162.732107-70.070562-162.77195-156.184573-162.77195zM1048.031201 631.413605c15.777829-25.552646 20.373056-56.723156 14.077862-85.981201a113.897866 113.897866 0 0 0-18.062162-41.715625c-3.9843-5.604582-12.935695-12.391174-13.028662-19.536353 0-5.405367 4.24992-11.063074 6.50769-15.844234q2.935101-6.175666 5.312401-12.60367c23.626901-62.633202 8.552965-136.316196-42.100774-181.046608a156.078326 156.078326 0 0 0-92.409206-39.192235c-2.52339-0.172653-2.510109 3.758523 0 3.984301 63.748806 4.303044 119.529011 51.251384 136.050576 112.729138a168.549186 168.549186 0 0 1-4.528821 100.444212c-3.014787 8.300626-7.251427 15.844234-10.770892 23.905802-2.802291 6.414724-2.39058 11.780248 1.925745 17.331706 9.190453 11.846653 17.530922 22.577702 22.776917 36.907902 11.846653 32.272833 8.991238 69.313545-9.137329 98.69112-1.3281 2.151522 2.058555 4.130391 3.386655 1.978869z" fill="#541018" p-id="1690"></path><path d="M384.286606 405.517056a34.105611 30.971295 0 1 0 68.211222 0 34.105611 30.971295 0 1 0-68.211222 0Z" fill="#FFFFFF" p-id="1691"></path></svg>