<?xml version="1.0" standalone="no"?><!DOCTYPE svg PUBLIC "-//W3C//DTD SVG 1.1//EN" "http://www.w3.org/Graphics/SVG/1.1/DTD/svg11.dtd"><svg t="1517895180583" class="icon" style="" viewBox="0 0 1151 1024" version="1.1" xmlns="http://www.w3.org/2000/svg" p-id="2190" xmlns:xlink="http://www.w3.org/1999/xlink" width="35.96875" height="32"><defs><style type="text/css"></style></defs><path d="M943.867059 602.696893c0 231.040946-186.533815 414.998578-477.577831 414.998577S6.291584 820.986377 6.291584 589.945431 175.258157 181.005416 466.289228 181.005416 943.867059 371.643 943.867059 602.696893z" fill="#ED8D37" p-id="2191"></path><path d="M466.289228 1023.987054c-139.722359 0-258.524553-44.623642-343.564503-129.068092C43.587991 816.351836 0 708.035615 0 589.945431c0-58.384864 10.576593-113.481534 31.432029-163.775369a376.148694 376.148694 0 0 1 91.435098-131.92908c83.797167-78.191703 202.560525-119.514205 343.422101-119.514205 71.472912 0 138.621979 11.366277 199.583026 33.788137 58.255408 21.412099 109.571949 52.39103 152.616222 92.082381 84.910493 78.334105 131.670167 185.562892 131.670167 302.099598 0 116.083609-46.785565 222.19907-131.721949 298.811403-42.953654 38.733373-94.309032 68.935566-152.629168 89.765111-60.8057 21.709849-127.928875 32.713648-199.518298 32.713647z m0-836.690054C194.922594 187.335837 12.647896 349.156413 12.647896 589.945431c0 248.155091 186.572652 421.471401 453.70606 421.471401 273.153133 0 471.286247-171.892289 471.286247-408.706994-0.064728-240.711344-198.26257-415.374002-471.350975-415.374001z" fill="#541018" p-id="2192"></path><path d="M1087.796753 76.00328a57.646962 57.646962 0 0 0-20.829545 3.883694 57.672853 57.672853 0 1 0-78.062246 37.218732l-122.181008 122.142172 49.271129 49.193455 123.449681-123.449682a57.672853 57.672853 0 1 0 48.351989-88.988371z" fill="#FFE692" p-id="2193"></path><path d="M915.995083 297.373829l-58.164788-58.125951 120.562802-120.523966a63.977383 63.977383 0 1 1 97.092346-54.734192 65.401404 65.401404 0 0 1-0.375424 6.938867 63.977383 63.977383 0 1 1-36.377265 103.746408z m-40.364525-58.125951l40.364525 40.364524 124.537116-124.485333 4.233226 6.472823a51.381269 51.381269 0 1 0 24.531999-75.900323l-11.858212 4.543922 3.482379-12.168908a51.381269 51.381269 0 1 0-69.582848 33.205583l8.557072 3.650672z" fill="#541018" p-id="2194"></path><path d="M735.429211 384.122603m-271.366634 0a271.366634 271.366634 0 1 0 542.733268 0 271.366634 271.366634 0 1 0-542.733268 0Z" fill="#ED8D37" p-id="2195"></path><path d="M735.429211 661.780821a277.658218 277.658218 0 1 1 196.35956-81.324549 275.806991 275.806991 0 0 1-196.35956 81.324549z m0-542.733268c-146.156345 0-265.062104 118.918705-265.062105 265.07505s118.90576 265.07505 265.062105 265.07505 265.07505-118.90576 265.07505-265.087995S881.598501 119.047553 735.429211 119.047553z" fill="#541018" p-id="2196"></path><path d="M283.936856 586.268868a294.176863 271.366634 90 1 0 542.733269 0 294.176863 271.366634 90 1 0-542.733269 0Z" fill="#ED8D37" p-id="2197"></path><path d="M66.21698 689.316211c33.166745 111.953948 131.113504 190.184487 240.297083 222.186124a499.391245 499.391245 0 0 0 102.620137 18.214524c9.061952 0.699065 9.061952-13.463472 0-14.149591-112.148132-8.531181-225.176569-55.420311-290.836886-150.311897a279.781304 279.781304 0 0 1-38.47446-79.706343c-2.589129-8.71242-16.259732-5.009965-13.657657 3.767183zM462.483208 927.826795A414.390132 414.390132 0 0 0 634.33666 895.773375c8.272268-3.469433 4.634541-17.178872-3.767183-13.644711a404.460822 404.460822 0 0 1-168.086269 31.535594c-9.061952-0.245967-9.061952 13.903624 0 14.162537z" fill="#541018" p-id="2198"></path></svg>