<?xml version="1.0" standalone="no"?><!DOCTYPE svg PUBLIC "-//W3C//DTD SVG 1.1//EN" "http://www.w3.org/Graphics/SVG/1.1/DTD/svg11.dtd"><svg t="1517556928683" class="icon" style="" viewBox="0 0 1024 1024" version="1.1" xmlns="http://www.w3.org/2000/svg" p-id="1383" xmlns:xlink="http://www.w3.org/1999/xlink" width="32" height="32"><defs><style type="text/css"></style></defs><path d="M900.9 731.2v93.9c0 11.3-9.2 20.5-20.5 20.5H711c-7 4.6-15.4 7.3-24.4 7.3-3.6 0-7.2-0.5-10.6-1.3-55.4 62-118 104.9-161.8 110.5-3.3 0.4-6.5 0.6-9.5 0.6s-6.2-0.2-9.5-0.6c-42.1-5.3-104.4-47.4-158.6-107.1 0 0-1.4-1.6-2.2-2.4-1.3 0.1-2.7 0.2-4 0.2-9 0-17.4-2.7-24.4-7.3H142.8c-11.3 0-20.5-9.2-20.5-20.5v-93.9c0-11.3 9.2-20.5 20.5-20.5h99.1c-22.6-51.4-34.1-102.8-34.1-153.1 0-78.8 17.9-154.3 51.7-218.9-1.1-9.7-1.7-19.4-1.7-29.1 0-51.7 15.6-100.8 45.3-142.6L249 138.3c-5.7-3-9.3-9-9.2-15.5 0-6.5 3.7-12.4 9.4-15.4 42.5-21.9 91.2-26.5 136.4-14l1.5-0.9C423 73 463.7 62.7 504.8 62.7c41.1 0 81.8 10.3 117.8 29.8l1.5 0.9c45.1-12.5 93.9-7.8 136.4 14 5.8 3 9.4 8.9 9.4 15.4s-3.5 12.5-9.2 15.5L706.5 167c29.7 41.8 45.3 90.9 45.3 142.6 0 9.7-0.6 19.4-1.7 29.1 33.8 64.6 51.7 140 51.7 218.8 0 50.3-11.5 101.6-34.1 153.1h112.7c11.3 0.2 20.5 9.3 20.5 20.6z" fill="#663333" p-id="1384"></path><path d="M731.2 751.7h128.7v52.9H731.2z" fill="#CA5F38" p-id="1385"></path><path d="M737.8 414c15.1 44.7 23 93.4 23 143.7 0 49.9-12.8 101.3-38.2 153.1H711c-7-4.6-15.4-7.3-24.4-7.3-9 0-17.4 2.7-24.4 7.3h-5.5c-7-4.6-15.4-7.3-24.4-7.3-2 0-4.1 0.1-6.1 0.4-0.8-13.9-2.4-27.8-4.9-41.3-17.6-97.8 29-197.6 116-248.3 0.2-0.2 0.3-0.2 0.5-0.3z" fill="#B88D5B" p-id="1386"></path><path d="M722.6 375.6c-2 1.1-3.9 2.1-5.8 3.3C615 438.1 560.4 555.1 581 669.8c2 11.2 3.4 22.7 4.2 34.3-2.4-0.4-4.8-0.6-7.2-0.6-9 0-17.4 2.7-24.4 7.3h-90.1c-7-4.6-15.4-7.3-24.4-7.3-5.2 0-10.2 0.9-14.8 2.5 0.7-12.1 2.2-24.3 4.3-36.2 21.1-117.6-36.7-236.4-141.5-294.3 3.6-7.9 7.5-15.6 11.6-23.1 1.9-3.6 2.7-7.4 2.4-11.2 0-0.4-2.3-21.6-2.3-31.5 0-20.6 3-40.7 8.8-59.8-0.1 2.2-0.2 4.3-0.2 6.5 0 42.7 27.4 80.2 68.1 93.2 9.5 3 19.5 4.5 29.7 4.5s20.1-1.5 29.6-4.5c6.8-2.1 13.3-5.1 19.5-8.7l21.5 43C481.4 395 492.6 402 505 402c6.2 0 12.1-1.7 17.2-4.9 5.1-3.1 9.2-7.6 12-13.2l21.4-42.8c6.1 3.5 12.5 6.4 19.1 8.5 9.5 3.1 19.5 4.6 29.6 4.6 10.1 0 20.1-1.5 29.6-4.6 40.8-12.9 68.1-50.4 68.1-93.1 0-2.6-0.1-5.3-0.3-7.9 6.1 19.6 9.2 40.1 9.2 61.1 0 10-0.7 20.1-2.2 30 0 0.2 0 0.3-0.1 0.5-0.5 4.1 0.2 8.4 2.3 12.3 4.2 7.5 8 15.2 11.7 23.1z" fill="#F2EBDC" p-id="1387"></path><path d="M710.3 125.7l-179.4 95.2c13-34.6 38.3-63.9 71.7-81.6 22.4-11.9 47.1-17.9 71.8-17.9 12 0 24 1.5 35.9 4.3z" fill="#B88D5B" p-id="1388"></path><path d="M696.4 748v60.3c0 5.4-4.4 9.8-9.8 9.8s-9.7-4.4-9.7-9.8V748c0-5.4 4.4-9.7 9.7-9.7 5.4 0 9.8 4.4 9.8 9.7z" fill="#FDCB81" p-id="1389"></path><path d="M636 204.5c17.9 11 29.1 30.7 29.1 51.9 0 26.6-17 50-42.5 58-11.8 3.7-25 3.8-36.8 0-9.2-2.9-17.8-8.1-24.6-15-2.1-2.1-4-4.4-5.7-6.7-7.8-10.6-12-23.1-12-36.3 0-1 0.1-1.9 0.1-2.8l32.2-17.1c-3 3.1-4.9 7.3-4.9 11.9 0 9.4 7.6 17 17 17s17-7.6 17-17-7.6-17-17-17c-1 0-2.1 0.1-3.1 0.3l51.2-27.2z" fill="#FFFFFF" p-id="1390"></path><path d="M642 748v60.3c0 5.4-4.4 9.8-9.7 9.8-5.4 0-9.8-4.4-9.8-9.8V748c0-5.4 4.4-9.7 9.8-9.7s9.7 4.4 9.7 9.7z" fill="#FDCB81" p-id="1391"></path><path d="M607.9 845.6c3.6 2.4 7.6 4.2 11.9 5.5-9.4 9.1-18.7 17.3-27.8 24.7 4.9-9.6 9.4-19.7 13.4-30.2h2.5z" fill="#B88D5B" p-id="1392"></path><path d="M587.7 748v60.3c0 5.4-4.4 9.8-9.7 9.8-5.4 0-9.7-4.4-9.7-9.8V748c0-5.4 4.4-9.7 9.7-9.7 5.4 0 9.7 4.4 9.7 9.7z" fill="#FDCB81" p-id="1393"></path><path d="M553.6 845.6c1.9 1.2 3.9 2.3 5.9 3.3-13.9 29.6-32.8 54.7-54.7 72.4-21.5-17.3-39.7-41.2-53.6-70 4.4-1.2 8.5-3.2 12.3-5.6h90.1z" fill="#F2EBDC" p-id="1394"></path><path d="M504.8 103.6c23.6 0 47.1 4.1 69.2 12-30.1 19-54 46-69.2 77.6-15.2-31.6-39.1-58.6-69.2-77.6 22.1-7.9 45.6-12 69.2-12z" fill="#B88D5B" p-id="1395"></path><path d="M483.7 751.7h49.7v52.9h-49.7z" fill="#CA5F38" p-id="1396"></path><path d="M526.8 316l-22 43.9-22.1-44.1c0.1-0.1 16.5-28.4 18.9-44.2 1 0.2 5.1 0.2 6.1 0.1 2.4 15.4 18.8 43.8 19.1 44.3z" fill="#FDCB81" p-id="1397"></path><path d="M478.9 220.9l-179.4-95.2c36-8.6 74.3-4.1 107.7 13.6 33.4 17.7 58.7 47 71.7 81.6z" fill="#B88D5B" p-id="1398"></path><path d="M465.8 253.4c0.1 1 0.1 2 0.1 3 0 13.5-4.3 26.3-12.5 36.9-0.1 0.1-0.2 0.3-0.3 0.4-1.4 1.9-3 3.6-4.7 5.4-7 7-15.6 12.3-24.9 15.3-11.7 3.7-25.2 3.7-36.9 0-25.3-8.1-42.4-31.4-42.4-58 0-21.3 11.3-41 29.3-52l51.4 27.3c-1-0.2-2-0.3-3.1-0.3-9.4 0-17 7.6-17 17s7.6 17 17 17 17-7.6 17-17c0-4.7-1.9-8.9-4.9-11.9l31.9 16.9z" fill="#FFFFFF" p-id="1399"></path><path d="M448.8 748v60.3c0 5.4-4.4 9.8-9.7 9.8-5.4 0-9.7-4.4-9.7-9.8V748c0-5.4 4.4-9.7 9.7-9.7 5.4 0 9.7 4.4 9.7 9.7z" fill="#FDCB81" p-id="1400"></path><path d="M405.5 848.8c3.7 9.4 7.8 18.5 12.3 27.1-8.6-7-17.5-14.9-26.6-23.5 5-0.7 9.7-2.3 13.9-4.5 0.2 0.3 0.3 0.6 0.4 0.9z" fill="#B88D5B" p-id="1401"></path><path d="M394.6 748v60.3c0 5.4-4.4 9.8-9.7 9.8-5.4 0-9.8-4.4-9.8-9.8V748c0-5.4 4.4-9.7 9.8-9.7 5.3 0 9.7 4.4 9.7 9.7z" fill="#FDCB81" p-id="1402"></path><path d="M272.3 414c86.6 50.3 134.1 150 116.4 248.6-2.4 13.5-4 27.2-4.9 40.9-8.5 0.3-16.4 2.9-23 7.3h-5.5c-7-4.6-15.4-7.3-24.4-7.3s-17.4 2.7-24.4 7.3h-19.1C262 659 249.2 607.5 249.2 557.7c0-50.3 7.9-98.9 23.1-143.7z" fill="#B88D5B" p-id="1403"></path><path d="M340.2 748v60.3c0 5.4-4.4 9.8-9.7 9.8s-9.7-4.4-9.7-9.8V748c0-5.4 4.4-9.7 9.7-9.7s9.7 4.4 9.7 9.7z" fill="#FDCB81" p-id="1404"></path><path d="M163.3 751.7h122.6v52.9H163.3z" fill="#CA5F38" p-id="1405"></path></svg>