<?xml version="1.0" standalone="no"?><!DOCTYPE svg PUBLIC "-//W3C//DTD SVG 1.1//EN" "http://www.w3.org/Graphics/SVG/1.1/DTD/svg11.dtd"><svg t="1515639210852" class="icon" style="" viewBox="0 0 1024 1024" version="1.1" xmlns="http://www.w3.org/2000/svg" p-id="1569" xmlns:xlink="http://www.w3.org/1999/xlink" width="32" height="32"><defs><style type="text/css"></style></defs><path d="M768 352h-128c-132.544 0-240 107.456-240 240 0 16.464 1.856 32.48 5.04 48H368a48 48 0 1 0 0 96h80.4c0.576 0.752 1.056 1.568 1.648 2.304A47.84 47.84 0 0 0 416 784a48 48 0 0 0 48 48h304c132.544 0 240-107.456 240-240s-107.456-240-240-240z" fill="#FDE1D9" p-id="1570"></path><path d="M368 656h224v-32H368a64 64 0 0 0 0 128h224v-32H368a32 32 0 0 1 0-64z" fill="#2B3139" p-id="1571"></path><path d="M16 192h736v480H16z" fill="#A4D5F3" p-id="1572"></path><path d="M272 496m-64 0a64 64 0 1 0 128 0 64 64 0 1 0-128 0Z" fill="#FEE779" p-id="1573"></path><path d="M176 496m-64 0a64 64 0 1 0 128 0 64 64 0 1 0-128 0Z" fill="#F37879" p-id="1574"></path><path d="M432 528h128a16 16 0 0 0 0-32h-128a16 16 0 1 0 0 32z m0-64h256a16 16 0 0 0 0-32H432a16 16 0 1 0 0 32z m-256 112c18.096 0 34.592-6.24 48-16.352A79.392 79.392 0 0 0 272 576c44.192 0 80-35.808 80-80s-35.808-80-80-80c-18.096 0-34.592 6.24-48 16.352A79.392 79.392 0 0 0 176 416c-44.192 0-80 35.808-80 80s35.808 80 80 80z m69.056-119.712a48 48 0 1 1 0 79.424c6.768-11.744 10.944-25.184 10.944-39.712s-4.176-27.968-10.944-39.712zM176 448a48 48 0 1 1 0 96 48 48 0 0 1 0-96z m560-272H32a32 32 0 0 0-32 32v448a32 32 0 0 0 32 32h704a32 32 0 0 0 32-32V208a32 32 0 0 0-32-32z m0 480H32V336h704v320z m0-384H32v-64h704v64z" fill="#2B3139" p-id="1575"></path><path d="M784 352H608a48 48 0 1 0 0 96h176a48 48 0 1 0 0-96z" fill="#FDE1D9" p-id="1576"></path><path d="M768 336H608a64 64 0 0 0 0 128h131.68c14.576 64.112 71.792 112 140.32 112a16 16 0 1 0 0-32 112 112 0 0 1-112-112H608a32 32 0 0 1 0-64h160c123.712 0 224 100.288 224 224 0 123.696-100.288 224-224 224H464a32 32 0 0 1 0-64h176v-32H464a64 64 0 0 0 0 128h304c141.392 0 256-114.608 256-256s-114.608-256-256-256z" fill="#2B3139" p-id="1577"></path></svg>