<?xml version="1.0" standalone="no"?><!DOCTYPE svg PUBLIC "-//W3C//DTD SVG 1.1//EN" "http://www.w3.org/Graphics/SVG/1.1/DTD/svg11.dtd"><svg t="1519608973306" class="icon" style="" viewBox="0 0 1024 1024" version="1.1" xmlns="http://www.w3.org/2000/svg" p-id="8484" xmlns:xlink="http://www.w3.org/1999/xlink" width="32" height="32"><defs><style type="text/css"></style></defs><path d="M363.318 866.455v50h-98s2-46 98-50zM650.342 870.461v50h98s-2-46-98-50z" fill="#FFC912" p-id="8485"></path><path d="M405.376 756.816c-5.267-1.674-10.885 1.245-12.555 6.51l-29.533 93.141c-0.129 0.001-0.258-0.009-0.387-0.003-103.98 4.332-107.477 57.304-107.574 59.557a9.997 9.997 0 0 0 9.991 10.435h98c5.522 0 10-4.478 10-10V891.01l38.568-121.638c1.668-5.266-1.246-10.887-6.51-12.556z m-52.059 149.638h-73.462c7.237-10.468 25.855-25.567 73.462-29.38v29.38zM660.343 861.026V749.352c0-5.522-4.478-10-10-10s-10 4.478-10 10v171.109c0 5.522 4.478 10 10 10h98a9.999 9.999 0 0 0 9.991-10.435c-0.096-2.181-3.379-51.917-97.991-59z m0 49.435V881.084c37.979 3.06 57.175 13.359 66.711 21.832 2.955 2.625 5.142 5.198 6.758 7.545h-73.469z" fill="#723703" p-id="8486"></path><path d="M507.462 488.745m-353.1 0a353.1 353.1 0 1 0 706.2 0 353.1 353.1 0 1 0-706.2 0Z" fill="#FC7070" p-id="8487"></path><path d="M191.383 646.309a351.828 351.828 0 0 0 4.787 9.235v-9.129c-1.603 0-3.198-0.042-4.787-0.106z" fill="#EA4F3B" p-id="8488"></path><path d="M214.362 488.745c0-184.906 142.131-336.61 323.1-351.837a357.795 357.795 0 0 0-30-1.263c-161.223 0-297.206 108.054-339.489 255.692a350.44 350.44 0 0 0-5.55 22.046c-5.279 24.283-8.061 49.498-8.061 75.363 0 56.624 13.331 110.132 37.022 157.564 1.589 0.064 3.183 0.106 4.787 0.106v9.129c59.545 110.894 176.61 186.301 311.291 186.301 10.105 0 20.11-0.431 30-1.263-180.97-15.227-323.1-166.931-323.1-351.838z" fill="#EA4F3B" p-id="8489"></path><path d="M507.462 488.745m-317.79 0a317.79 317.79 0 1 0 635.58 0 317.79 317.79 0 1 0-635.58 0Z" fill="#AEE2FF" p-id="8490"></path><path d="M249.672 488.745c0-165.391 126.352-301.251 287.79-316.371a321.62 321.62 0 0 0-30-1.419c-175.511 0-317.79 142.279-317.79 317.79 0 175.511 142.279 317.79 317.79 317.79a321.62 321.62 0 0 0 30-1.419c-161.439-15.12-287.79-150.98-287.79-316.371z" fill="#64D0FF" p-id="8491"></path><path d="M424.35 163.424m-60 0a60 60 0 1 0 120 0 60 60 0 1 0-120 0Z" fill="#FFFFFF" p-id="8492"></path><path d="M424.349 233.424c-38.598 0-70-31.402-70-70s31.402-70 70-70 70 31.402 70 70-31.402 70-70 70z m0-120c-27.57 0-50 22.43-50 50s22.43 50 50 50 50-22.43 50-50-22.429-50-50-50z" fill="#723703" p-id="8493"></path><path d="M424.35 163.424m-16 0a16 16 0 1 0 32 0 16 16 0 1 0-32 0Z" fill="#723703" p-id="8494"></path><path d="M589.31 163.424m-60 0a60 60 0 1 0 120 0 60 60 0 1 0-120 0Z" fill="#FFFFFF" p-id="8495"></path><path d="M589.31 233.424c-38.598 0-70-31.402-70-70s31.402-70 70-70 70 31.402 70 70-31.402 70-70 70z m0-120c-27.57 0-50 22.43-50 50s22.43 50 50 50 50-22.43 50-50-22.429-50-50-50z" fill="#723703" p-id="8496"></path><path d="M589.31 163.424m-16 0a16 16 0 1 0 32 0 16 16 0 1 0-32 0Z" fill="#723703" p-id="8497"></path><path d="M737.862 475.622h88v20h-88zM776.647 318.162l10 17.32-76.209 44-10-17.32zM655.283 206.434l17.32 10-44 76.208-17.32-10zM494.339 170.344h20v88h-20zM354.222 209.556l44 76.208-17.32 10-44-76.208zM235.152 323.58l76.208 44-10 17.32-76.208-44zM189.061 481.868h88v20h-88zM304.502 597.98l10 17.32-76.208 44-10-17.32zM386.3 684.822l17.32 10-44 76.209-17.32-10zM500.585 719.146h20v88h-20zM634.044 681.7l44 76.208-17.32 10-44-76.208zM713.54 592.564l76.207 44-10 17.32-76.208-44zM633.507 504.698h-95.929a31.577 31.577 0 0 0-19.736-19.466V298.608h-20v186.624c-12.495 4.181-21.503 15.971-21.503 29.873 0 17.399 14.104 31.503 31.503 31.503 14.053 0 25.952-9.203 30.011-21.91h95.654v-20z" fill="#FFC912" p-id="8498"></path><path d="M817.173 652.456m-32 0a32 32 0 1 0 64 0 32 32 0 1 0-64 0Z" fill="#FFFFFF" p-id="8499"></path><path d="M227.175 652.456m-32 0a32 32 0 1 0 64 0 32 32 0 1 0-64 0Z" fill="#FFFFFF" p-id="8500"></path><path d="M227.175 610.456c-20.942 0-38.35 15.407-41.492 35.482-60.17-5.37-107.512-56.47-107.512-118.523 0-53.794 35.58-99.356 84.252-114.033a350.44 350.44 0 0 1 5.55-22.046c-62.616 13.147-109.802 69.165-109.802 136.078 0 73.701 57.246 134.179 129.302 138.716 5.687 16.463 21.33 28.325 39.702 28.325 23.159 0 42-18.841 42-42s-18.841-41.999-42-41.999z m0 64c-12.131 0-22-9.869-22-22s9.869-22 22-22 22 9.869 22 22-9.87 22-22 22z" fill="#723703" p-id="8501"></path><path d="M180.881 181.131c-31.242 31.242-31.242 81.895 0 113.137l113.137-113.137c-31.242-31.242-81.895-31.242-113.137 0z" fill="#AEE2FF" p-id="8502"></path><path d="M220.881 181.131c10.49-10.49 23.172-17.44 36.569-20.886-26.503-6.817-55.816 0.133-76.569 20.886-31.242 31.242-31.242 81.895 0 113.137l23.649-23.649c-13.288-29.45-7.848-65.289 16.351-89.488z" fill="#64D0FF" p-id="8503"></path><path d="M830.58 181.131c31.242 31.242 31.242 81.895 0 113.137L717.443 181.131c31.241-31.242 81.895-31.242 113.137 0z" fill="#AEE2FF" p-id="8504"></path><path d="M790.58 181.131c-10.49-10.49-23.172-17.44-36.569-20.886 26.503-6.817 55.816 0.133 76.569 20.886 31.242 31.242 31.242 81.895 0 113.137l-23.649-23.649c13.287-29.45 7.847-65.289-16.351-89.488z" fill="#64D0FF" p-id="8505"></path><path d="M496.339 515.104c0-13.902 9.008-25.692 21.503-29.873a31.443 31.443 0 0 0-10-1.63c-17.399 0-31.503 14.104-31.503 31.503s14.104 31.503 31.503 31.503c3.497 0 6.857-0.578 10-1.63-12.495-4.181-21.503-15.971-21.503-29.873z" fill="#FFB408" p-id="8506"></path><path d="M846.499 389.785a350.698 350.698 0 0 1 5.484 21.285c53.193 11.524 93.191 59.309 93.191 116.345 0 54.892-37.048 101.214-87.249 114.893-4.552-18.271-21.093-31.852-40.753-31.852-23.159 0-42 18.841-42 42s18.841 42 42 42c19.537 0 36.001-13.408 40.673-31.506 61.381-14.085 107.329-69.505 107.329-135.535 0.001-70.038-51.698-128.134-118.675-137.63zM817 675c-12.426 0-22.5-10.074-22.5-22.5S804.574 630 817 630s22.5 10.074 22.5 22.5S829.426 675 817 675z" fill="#723703" p-id="8507"></path></svg>