<?xml version="1.0" standalone="no"?><!DOCTYPE svg PUBLIC "-//W3C//DTD SVG 1.1//EN" "http://www.w3.org/Graphics/SVG/1.1/DTD/svg11.dtd"><svg t="1517993519191" class="icon" style="" viewBox="0 0 1024 1024" version="1.1" xmlns="http://www.w3.org/2000/svg" p-id="2779" xmlns:xlink="http://www.w3.org/1999/xlink" width="48" height="48"><defs><style type="text/css"></style></defs><path d="M506.003246 507.448247m-428.081564 0a428.081564 428.081564 0 1 0 856.163127 0 428.081564 428.081564 0 1 0-856.163127 0Z" fill="#E3DEFF" p-id="2780"></path><path d="M512.722501 177.988005S399.542793 323.680237 399.542793 458.571086s46.529034 267.325196 46.529034 267.325196h137.672476s42.194031-167.475623 42.19403-273.430326-113.215833-274.477951-113.215832-274.477951z" fill="#FFFFFF" p-id="2781"></path><path d="M595.015311 740.563042h-159.202992l-3.395752-9.681507c-1.914626-5.491004-47.323785-136.4081-47.323785-272.165949 0-58.341918 19.615889-124.811966 58.269668-197.64002a696.309885 696.309885 0 0 1 57.800042-91.793692l12.282509-15.786637 11.271008 16.292387c4.732378 7.225005 115.600085 173.400127 115.600085 282.606082 0 106.532703-40.89353 270.034573-42.627531 276.970578z m-138.503352-28.900021h115.889085c9.175757-38.689903 39.087279-171.413251 39.087279-258.980314 0-80.956184-71.274677-203.492274-99.452198-248.829183-28.647146 41.47153-98.043322 152.555987-98.043322 254.862062 0 110.036831 32.151274 220.182036 42.519156 252.947435z" fill="#404951" p-id="2782"></path><path d="M511.313624 202.553023s55.379666 93.310943 68.637551 128.85797 28.900021 72.828053 30.706272 110.759331-7.225005 104.184576-7.225005 104.184576L570.450293 711.663021h-94.358569s-17.159388-137.744726-18.965639-163.032244c0 0-13.546885-130.953221 18.965639-211.331405z" fill="#E3DEFF" p-id="2783"></path><path d="M395.85804 505.967121S285.387709 612.138573 349.943131 820.038101a1.842376 1.842376 0 0 0 3.612503 0.21675c8.670006-19.435264 44.831158-94.322444 87.675439-94.322444z" fill="#FFFFFF" p-id="2784"></path><path d="M351.785508 835.752487h-1.011501a16.147887 16.147887 0 0 1-14.450011-11.451633c-66.397799-213.932407 44.939533-324.113737 49.708037-328.737741l18.893389-18.062513 54.187539 262.954067h-17.701263c-25.034643 0-55.451916 43.061032-74.453679 85.760813a16.147887 16.147887 0 0 1-15.172511 9.537007z m36.125026-296.514217a248.395682 248.395682 0 0 0-26.262894 52.381288c-14.919636 40.82128-27.02152 105.990828-6.46638 192.907642 15.714387-27.852395 39.737529-60.545544 68.63755-70.227052z" fill="#404951" p-id="2785"></path><path d="M457.126085 361.50314l110.181331 0 0 110.18133-110.181331 0 0-110.18133Z" fill="#CBB8FF" p-id="2786"></path><path d="M512.21675 482.521978A65.928173 65.928173 0 1 1 578.000423 416.593805a66.000423 66.000423 0 0 1-65.783673 65.928173z m0-110.18133A44.253157 44.253157 0 1 0 556.325407 416.593805a44.289282 44.289282 0 0 0-44.108657-44.253157z" fill="#404951" p-id="2787"></path><path d="M627.816835 505.967121s110.434206 106.171453 45.914908 314.07098a1.878501 1.878501 0 0 1-3.612502 0.21675c-8.670006-19.435264-44.831158-94.322444-87.639314-94.322444z" fill="#FFFFFF" p-id="2788"></path><path d="M671.925492 835.752487a16.111762 16.111762 0 0 1-14.847386-9.645382c-19.037889-42.699781-49.419036-85.760813-74.453679-85.760813h-17.737388l54.187539-262.954067 18.893389 18.062513c4.768503 4.587878 116.105835 114.769209 49.708037 328.737741a16.184012 16.184012 0 0 1-14.450011 11.451633z m-72.250053-121.452339c29.152896 9.681507 52.995414 42.338531 68.63755 70.190927 12.752134-54.18754 18.604389-124.378466-6.430254-192.871517a251.899809 251.899809 0 0 0-26.262894-52.381288z" fill="#404951" p-id="2789"></path><path d="M466.012841 728.172158l8.561632 44.903408a15.714387 15.714387 0 0 0 15.389261 12.78826h51.658788a15.642136 15.642136 0 0 0 15.389261-12.824385l8.489381-45.589783z" fill="#FFFFFF" p-id="2790"></path><path d="M541.622522 800.422211h-51.658788a30.128272 30.128272 0 0 1-29.586397-24.565018l-11.632258-62.02667 134.132223-0.830876-11.632259 62.785296a30.164397 30.164397 0 0 1-29.622521 24.637268z m-58.089043-57.800042l5.238129 27.996895a1.228251 1.228251 0 0 0 1.192126 1.011501h51.658788a1.228251 1.228251 0 0 0 1.192126-1.011501l5.274253-28.39427z" fill="#404951" p-id="2791"></path><path d="M390.872786 559.57666s-51.767163 114.407959-35.510901 225.203415a168.956749 168.956749 0 0 1 68.637551-71.672053" fill="#E3DEFF" p-id="2792"></path><path d="M487.832357 546.463275h55.993791v113.793834h-55.993791z" fill="#CBB8FF" p-id="2793"></path><path d="M554.663656 671.094617H476.850349v-135.46885h77.668807z m-55.993791-21.675016h34.318775v-92.118818H498.525365zM350.983532 549.18349l28.054696-6.950455 46.973372 189.670839-28.054696 6.946842z" fill="#404951" p-id="2794"></path><path d="M633.669089 549.822903l-34.318775 163.899245s38.400903 11.740634 69.540676 70.913427c0 0 18.532139-141.357229-35.221901-234.812672z" fill="#E3DEFF" p-id="2795"></path><path d="M596.720412 735.346589l50.585875-191.462641 27.942708 7.380343-50.589487 191.466253zM510.265999 323.102237a137.780851 137.780851 0 0 1-74.128555-22.072392l16.617513-23.625767a105.448952 105.448952 0 0 0 114.046708-0.397375l15.425386 24.456643a132.940097 132.940097 0 0 1-71.961052 21.638891z" fill="#404951" p-id="2796"></path><path d="M483.641854 742.297044h64.447047l-5.310378 27.635645a1.228251 1.228251 0 0 1-1.336626 1.481126h-35.438651z" fill="#CBB8FF" p-id="2797"></path></svg>