<?xml version="1.0" standalone="no"?><!DOCTYPE svg PUBLIC "-//W3C//DTD SVG 1.1//EN" "http://www.w3.org/Graphics/SVG/1.1/DTD/svg11.dtd"><svg t="1519609035835" class="icon" style="" viewBox="0 0 1024 1024" version="1.1" xmlns="http://www.w3.org/2000/svg" p-id="1338" xmlns:xlink="http://www.w3.org/1999/xlink" width="16" height="16"><defs><style type="text/css"></style></defs><path d="M715.297157 4.289014c-105.373698 23.863543-187.053902 114.783076-208.971328 228.319126 0 0-151.551449-104.391193-332.785896 38.695595C100.003187 329.347127 14.03397 456.808301 24.558113 660.205801 30.358674 772.438142 93.938106 862.526324 148.372681 909.799946c79.923031 69.417781 216.718005 100.612326 216.718005 100.612326 57.627717 15.115467 129.955226 18.440869 219.287635 5.800561 266.7502-270.188969 444.923765-589.503205 409.119003-797.662077C956.275487 1.738279 780.029144-10.372989 715.297157 4.289014z" fill="#C41212" p-id="1339"></path><path d="M586.286648 372.388419c305.974837-635.321964 755.055355-123.17216-1.889433 643.729942C168.967504 1074.917527 93.465748 780.921698 183.55393 558.554287c74.027999-182.727099 268.904154-314.345026 401.485692-185.447883z" fill="#F40303" p-id="1340"></path><path d="M147.749168 492.027339a2.83415 2.83415 0 0 0 0-5.6683 2.83415 2.83415 0 0 0 0 5.6683z" fill="#E00A0A" p-id="1341"></path></svg>